<svg xmlns="http://www.w3.org/2000/svg" viewBox="0 0 5100 1500" xml:space="preserve"><path fill="#4EC3C7" d="M2632.4 1303.8c-875-132-1138.1 84-1792.8 108-340.8 12.5-560.6 52.6-693 88.2H4778c-199.6-42.2-469.7-58.9-738.3-106.2-544.5-96-532.3 42-1407.3-90z"/><path fill="#009CB3" d="M2869.4 1433.7c-665-104-852.7 52-1411.7 24-303.2-15.2-635.2 13.2-875.6 42.3h3673.7c-314.4-86.1-820.9 22.1-1386.4-66.3z"/><path fill="#4EC3C7" d="M2698.1 829.8c327.6-5 327.1-39.8 654.7-44.7 327.6-5 328.1 29.9 655.7 24.9s327.1-39.8 654.7-44.7c44.9-.7 83.6-2 118-3.6-311.3-32.2-441 5.6-761.9 10.5-327.6 5-328.1-29.9-655.7-24.9s-327.1 39.8-654.7 44.7c-274.6 4.2-448.2-21.7-646 .2 173.4 4 382.9 41.4 635.2 37.6z"/><circle fill="#4EC3C7" cx="2285" cy="1231" r="26"/><circle fill="#4EC3C7" cx="2122" cy="1182" r="29"/><circle fill="#4EC3C7" cx="2157" cy="1033" r="40"/><circle fill="#4EC3C7" cx="2275" cy="873" r="30"/><circle fill="#4EC3C7" cx="2105.2" cy="713.2" r="37.3"/><circle fill="#81D0D3" cx="3923" cy="1391" r="26"/><circle fill="#81D0D3" cx="3799" cy="1405" r="12"/><circle fill="#81D0D3" cx="3823" cy="1257" r="22"/><circle fill="#81D0D3" cx="3901" cy="1277" r="10"/><circle fill="#6AC9CD" cx="3892" cy="1050" r="17"/><circle fill="#81D0D3" cx="3562" cy="1132" r="17"/><circle fill="#81D0D3" cx="3127" cy="1363" r="14"/><circle fill="#81D0D3" cx="2973" cy="1141" r="20"/><circle fill="#81D0D3" cx="3240" cy="1168" r="19"/><circle fill="#81D0D3" cx="4730" cy="1352" r="25"/><circle fill="#81D0D3" cx="4533" cy="1225" r="16"/><circle fill="#6AC9CD" cx="4556" cy="1012" r="13"/><circle fill="#81D0D3" cx="4461" cy="723" r="14"/><circle fill="#4EC3C7" cx="2201.4" cy="554.3" r="15.7"/><circle fill="#81D0D3" cx="399.9" cy="1317.8" r="18.7"/><circle fill="#81D0D3" cx="463.7" cy="1200" r="13.5"/><circle fill="#81D0D3" cx="369.2" cy="1152" r="22.5"/><circle fill="#81D0D3" cx="732.2" cy="802.5" r="21"/><circle fill="#81D0D3" cx="674.4" cy="689.3" r="17.2"/><circle fill="#81D0D3" cx="855.2" cy="469.6" r="27"/><circle fill="#81D0D3" cx="238" cy="305.3" r="23.2"/><circle fill="#81D0D3" cx="280.7" cy="453.1" r="19.5"/><circle fill="#81D0D3" cx="154.7" cy="586.6" r="18"/><g fill="#009CB3"><path d="M4495.5 303.1c-11.5 4.6-31.7 11.1-54.7 11.1s-43.2-6.5-54.7-11.1c-5.7-2.3-5.7-6.9 0-9.2 11.5-4.6 31.7-11.1 54.7-11.1s43.2 6.5 54.7 11.1c5.8 2.2 5.8 6.9 0 9.2z"/><path d="m4489.7 293.8 8.2-4.7s3.7-2.1 8.2-4.7c4.5-2.6 8.2-.5 8.2 4.7v18.6c0 5.1-3.7 7.2-8.2 4.7l-8.2-4.7s-3.7-2.1-8.2-4.7c-4.6-2.5-4.6-6.6 0-9.2zm80 93.5c-11.5 4.6-31.7 11.1-54.7 11.1s-43.2-6.5-54.7-11.1c-5.7-2.3-5.7-6.9 0-9.2 11.5-4.6 31.7-11.1 54.7-11.1s43.2 6.5 54.7 11.1c5.7 2.3 5.7 6.9 0 9.2z"/><path d="m4563.8 378.1 8.2-4.7s3.7-2.1 8.2-4.7c4.5-2.6 8.2-.5 8.2 4.7V392c0 5.1-3.7 7.2-8.2 4.7l-8.2-4.7s-3.7-2.1-8.2-4.7c-4.5-2.5-4.5-6.7 0-9.2zm140.7-104.8c-11.5 4.6-31.7 11.1-54.7 11.1-23 0-43.2-6.5-54.7-11.1-5.7-2.3-5.7-6.9 0-9.2 11.5-4.6 31.7-11.1 54.7-11.1 23 0 43.2 6.5 54.7 11.1 5.8 2.3 5.8 6.9 0 9.2z"/><path d="m4698.7 264 8.2-4.7s3.7-2.1 8.2-4.7c4.5-2.6 8.2-.5 8.2 4.7v18.6c0 5.1-3.7 7.2-8.2 4.7l-8.2-4.7s-3.7-2.1-8.2-4.7c-4.6-2.4-4.6-6.6 0-9.2zm-83.5-74.9c-11.5 4.6-31.7 11.1-54.7 11.1-23 0-43.2-6.5-54.7-11.1-5.7-2.3-5.7-6.9 0-9.2 11.5-4.6 31.7-11.1 54.7-11.1 23 0 43.2 6.5 54.7 11.1 5.7 2.2 5.7 6.8 0 9.2z"/><path d="m4609.3 179.8 8.2-4.7s3.7-2.1 8.2-4.7c4.5-2.6 8.2-.5 8.2 4.7v18.6c0 5.1-3.7 7.2-8.2 4.7l-8.2-4.7s-3.7-2.1-8.2-4.7c-4.5-2.5-4.5-6.6 0-9.2zM4777 400.5c-11.5 4.6-31.7 11.1-54.7 11.1-23 0-43.2-6.5-54.7-11.1-5.7-2.3-5.7-6.9 0-9.2 11.5-4.6 31.7-11.1 54.7-11.1 23 0 43.2 6.5 54.7 11.1 5.7 2.3 5.7 6.9 0 9.2z"/><path d="m4771.1 391.3 8.2-4.7s3.7-2.1 8.2-4.7c4.5-2.6 8.2-.5 8.2 4.7v18.6c0 5.1-3.7 7.2-8.2 4.7l-8.2-4.7s-3.7-2.1-8.2-4.7c-4.5-2.5-4.5-6.7 0-9.2zm-43 134.8c-11.5 4.6-31.7 11.1-54.7 11.1-23 0-43.2-6.5-54.7-11.1-5.7-2.3-5.7-6.9 0-9.2 11.5-4.6 31.7-11.1 54.7-11.1 23 0 43.2 6.5 54.7 11.1 5.8 2.3 5.8 6.9 0 9.2z"/><path d="m4722.2 516.8 8.2-4.7s3.7-2.1 8.2-4.7c4.5-2.6 8.2-.5 8.2 4.7v18.6c0 5.1-3.7 7.2-8.2 4.7l-8.2-4.7s-3.7-2.1-8.2-4.7c-4.5-2.4-4.5-6.6 0-9.2zm154.2-180.7c-11.5 4.6-31.7 11.1-54.7 11.1-23 0-43.2-6.5-54.7-11.1-5.7-2.3-5.7-6.9 0-9.2 11.5-4.6 31.7-11.1 54.7-11.1 23 0 43.2 6.5 54.7 11.1 5.8 2.3 5.8 6.9 0 9.2z"/><path d="m4870.6 326.8 8.2-4.7s3.7-2.1 8.2-4.7c4.5-2.6 8.2-.5 8.2 4.7v18.6c0 5.1-3.7 7.2-8.2 4.7l-8.2-4.7s-3.7-2.1-8.2-4.7c-4.6-2.4-4.6-6.6 0-9.2z"/></g><path d="M596.3 630c-10-4-27.5-9.6-47.5-9.6-18.1 0-34.1 4.6-44.4 8.4l-5.1-2.9s-3.2-1.8-7.2-4c-3.9-2.2-7.1-.4-7.1 4v16.2c0 4.5 3.2 6.3 7.1 4l7.2-4s2.2-1.2 5.1-2.9c10.3 3.9 26.4 8.4 44.4 8.4 20 0 37.5-5.6 47.5-9.6 4.9-1.9 4.9-6 0-8zm-182.4-24.3c20 0 37.5-5.6 47.5-9.6 5-2 5-6 0-8-10-4-27.5-9.6-47.5-9.6-18.1 0-34.1 4.6-44.4 8.4l-5.1-2.9s-3.2-1.8-7.1-4c-3.9-2.2-7.1-.4-7.1 4v16.2c0 4.5 3.2 6.3 7.1 4l7.1-4s2.2-1.2 5.1-2.9c10.3 3.8 26.3 8.4 44.4 8.4zm78.9 106.9c-10-4-27.5-9.6-47.5-9.6-18.1 0-34.1 4.6-44.4 8.4l-5.1-2.9s-3.2-1.8-7.2-4c-3.9-2.2-7.1-.4-7.1 4v16.2c0 4.5 3.2 6.3 7.1 4l7.2-4s2.2-1.2 5.1-2.9c10.3 3.9 26.4 8.4 44.4 8.4 20 0 37.5-5.6 47.5-9.6 5-2 5-6 0-8zm-145.6-46.8c-10-4-27.5-9.6-47.5-9.6-18.1 0-34.1 4.6-44.4 8.4l-5.1-2.9s-3.2-1.8-7.2-4c-3.9-2.2-7.1-.4-7.1 4v16.2c0 4.5 3.2 6.3 7.1 4l7.2-4s2.2-1.2 5.1-2.9c10.3 3.9 26.4 8.4 44.4 8.4 20 0 37.5-5.6 47.5-9.6 5-2 5-6 0-8zm-111.5 54.6c-10-4-27.5-9.6-47.5-9.6-18.1 0-34.1 4.6-44.4 8.4l-5.1-2.9s-3.2-1.8-7.1-4c-3.9-2.2-7.1-.4-7.1 4v16.2c0 4.5 3.2 6.3 7.1 4l7.1-4s2.2-1.2 5.1-2.9c10.3 3.9 26.4 8.4 44.4 8.4 20 0 37.5-5.6 47.5-9.6 5-2 5-6 0-8z" fill="#36ADB3"/><g fill="#36ADB3"><path d="M3419.7 685.5s43.8 34.7 97.8 34.7 85.5-34.7 85.5-34.7-31.4-34.7-85.5-34.7c-54 0-97.8 34.7-97.8 34.7z"/><path d="M3415.2 685.5c0-17.8-7.8-33.7-20-44.4 23.9 5.5 41.4 23.3 41.4 44.4s-17.5 38.9-41.4 44.4c12.2-10.7 20-26.6 20-44.4zm144 100.5s43.8 34.7 97.8 34.7 85.5-34.7 85.5-34.7-31.4-34.7-85.5-34.7c-54 0-97.8 34.7-97.8 34.7z"/><path d="M3554.7 786c0-17.8-7.8-33.7-20-44.4 23.9 5.5 41.4 23.3 41.4 44.4s-17.5 38.9-41.4 44.4c12.2-10.7 20-26.6 20-44.4z"/></g><g fill="#26ACBF"><path d="M920.4 1089.5s-43.8 34.7-97.8 34.7-85.5-34.7-85.5-34.7 31.4-34.7 85.5-34.7c54 0 97.8 34.7 97.8 34.7z"/><path d="M924.9 1089.5c0-17.8 7.8-33.7 20-44.4-23.9 5.5-41.4 23.3-41.4 44.4s17.5 38.9 41.4 44.4c-12.2-10.7-20-26.6-20-44.4zm109.7 107.5s-43.8 34.7-97.8 34.7-85.5-34.7-85.5-34.7 31.4-34.7 85.5-34.7c54 0 97.8 34.7 97.8 34.7z"/><path d="M1039.2 1197c0-17.8 7.8-33.7 20-44.4-23.9 5.5-41.4 23.3-41.4 44.4s17.5 38.9 41.4 44.4c-12.3-10.7-20-26.6-20-44.4zm-148.6 116s-43.8 34.7-97.8 34.7-85.5-34.7-85.5-34.7 31.4-34.7 85.5-34.7c54 0 97.8 34.7 97.8 34.7z"/><path d="M895.2 1313c0-17.8 7.8-33.7 20-44.4-23.9 5.5-41.4 23.3-41.4 44.4s17.5 38.9 41.4 44.4c-12.3-10.7-20-26.6-20-44.4z"/></g><path d="M1140.5 107.6s-15.2 8.8-34 8.8-34-8.8-34-8.8 15.2-8.8 34-8.8 34 8.8 34 8.8zm67.5 79.5s-15.2 8.8-34 8.8-34-8.8-34-8.8 15.2-8.8 34-8.8 34 8.8 34 8.8zm19.5-82.5s-15.2 8.8-34 8.8-34-8.8-34-8.8 15.2-8.8 34-8.8 34 8.8 34 8.8zm-73.5 36s-15.2 8.8-34 8.8-34-8.8-34-8.8 15.2-8.8 34-8.8 34 8.8 34 8.8zm-119.8-52.4s-15.2 8.8-34 8.8-34-8.8-34-8.8 15.2-8.8 34-8.8c18.8-.1 34 8.8 34 8.8zm67.5-31.5s-15.2 8.8-34 8.8-34-8.8-34-8.8 15.2-8.8 34-8.8c18.7-.1 34 8.8 34 8.8zm-64.5 121.5s-15.2 8.8-34 8.8-34-8.8-34-8.8 15.2-8.8 34-8.8c18.8-.1 34 8.8 34 8.8zm-93-69s-15.2 8.8-34 8.8-34-8.8-34-8.8 15.2-8.8 34-8.8c18.8-.1 34 8.8 34 8.8z" fill="#B8E4E6"/><path fill="#6AC9CD" d="M3509.2 211.4s-10.4 6-23.3 6-23.3-6-23.3-6 10.4-6 23.3-6c12.9-.1 23.3 6 23.3 6zm-59.1-32s-10.4 6-23.3 6-23.3-6-23.3-6 10.4-6 23.3-6 23.3 6 23.3 6zm119.2-51.9s-10.4 6-23.3 6-23.3-6-23.3-6 10.4-6 23.3-6 23.3 6 23.3 6zm117 117.2s-10.4 6-23.3 6-23.3-6-23.3-6 10.4-6 23.3-6c12.8 0 23.3 6 23.3 6zm-59.8 8.4s-10.4 6-23.3 6-23.3-6-23.3-6 10.4-6 23.3-6 23.3 6 23.3 6zm-29.2-38.1s-10.4 6-23.3 6-23.3-6-23.3-6 10.4-6 23.3-6 23.3 6 23.3 6zm-199.9 50.7s-10.4 6-23.3 6-23.3-6-23.3-6 10.4-6 23.3-6c12.9-.1 23.3 6 23.3 6zm146.7-87.4s-10.4 6-23.3 6-23.3-6-23.3-6 10.4-6 23.3-6 23.3 6 23.3 6zm-42.2-27.8s-10.4 6-23.3 6-23.3-6-23.3-6 10.4-6 23.3-6c12.9-.1 23.3 6 23.3 6zm14.9 104.7s-10.4 6-23.3 6-23.3-6-23.3-6 10.4-6 23.3-6c12.8-.1 23.3 6 23.3 6zm-74-23.7s-10.4 6-23.3 6-23.3-6-23.3-6 10.4-6 23.3-6c12.9-.1 23.3 6 23.3 6zm122.3 53.1s-10.4 6-23.3 6-23.3-6-23.3-6 10.4-6 23.3-6 23.3 6 23.3 6z"/><path fill="#4EC3C7" d="M3659.7 1260.2c-3-1-6.2-2.2-9.7-3.5-3.5-1.3-7.3-2.7-11.3-4-4-1.3-8.4-2.6-13-3.6s-9.5-1.8-14.6-2.1c-2.5-.2-5.1-.2-7.6-.2-2.5.1-4.9.2-7.2.4-4.7.4-9.2 1-13.4 1.8-2.4.4-4.8.9-7 1.4-19.6-2.4-45.5-3.8-74-3.8-60.9 0-110.2 6.6-110.2 14.7s49.3 14.7 110.2 14.7c18 0 34.9-.6 49.9-1.6.9.5 1.7 1 2.6 1.5 5.1 2.9 10.9 6.2 17.3 9.2 6.4 3 12.9 5.3 19.1 6.7 6.2 1.3 12 1.6 16.8 1.3 4.8-.4 8.5-1.3 11-2.1s3.8-1.4 3.8-1.4-1.4.1-4 .1-6.3-.1-10.7-.7c-4.4-.6-9.5-1.8-14.9-3.7-5.4-1.9-11.2-4.5-17.4-7.3-3.4-1.6-6.8-3.2-10.1-4.7 6-.6 11.5-1.2 16.5-1.9l2.2 1.2 2.4 1.3c.8.4 1.7.9 2.6 1.3 3.6 1.8 7.5 3.3 11.6 4.4 4.1 1.1 8.2 1.8 12.1 2.3 3.9.4 7.7.6 11.3.6 7.2-.1 13.6-.8 18.9-1.5 5.3-.7 9.5-1.5 12.5-2.1 2.9-.6 4.5-.9 4.5-.9s-1.7-.1-4.6-.3c-3-.2-7.3-.4-12.6-.7-5.3-.3-11.5-.6-18.3-1.3-6.8-.7-14.1-1.7-21.4-3.8-2.9-.8-5.7-1.7-8.4-2.8 3.3-.7 6.2-1.4 8.7-2.2 3.5.1 6.7.1 9.5 0 7-.3 11.3-1.4 11.3-1.3 0 0-4.3-1-10.9-2.6-.5-.1-1.1-.3-1.6-.4.3-.5.5-.9.5-1.4 0-2.4-4.1-4.6-11.5-6.5h3.1c2.3 0 4.6.1 6.9.2 9.3.6 18.1 2.4 26.2 4.2l11.6 2.7c3.7.8 7.1 1.6 10.3 2.2 6.4 1.2 11.6 1.7 15.2 1.9 3.6.2 5.6.1 5.6.1-.1 0-7.9-1.6-19.8-5.8z"/><path fill="#4BBBBF" d="M2951.6 270.9c-24.5 11.6-35.2 40.2-24 64 6.2 13.1 12.8 11.6 21.7 5.8.9 2 1.2 4.1 3.6 3.3.9-.3 1.5-.8 1.9-1.3.1.9.2 1.8.4 2.7.6 4.5 1.6 9 3 12.9 1.3 4 3 7.4 4.7 10.1 1.6 2.7 3.2 4.7 4.3 5.9 1.1 1.3 1.8 1.9 1.8 1.9s-.4-.9-1.1-2.4c-.7-1.6-1.7-3.8-2.6-6.6-1-2.8-1.9-6.1-2.6-9.7-.8-3.7-1.3-7.7-2-12.1-.3-2.3-.7-4.5-1-6.7 2.1-.1 3.3-1 4.3-1.8.1.3.2.7.3 1 1 3.2 2 6.7 3.2 10.2 1.2 3.6 2.5 7.3 4.1 11.1 3.1 7.4 6.7 14.3 10.4 20.3s7.6 10.9 11.1 14.7c3.5 3.8 6.6 6.5 8.7 8.2 2.1 1.8 3.4 2.6 3.4 2.6s-1.1-1.2-2.9-3.3c-1.8-2.2-4.4-5.3-7.4-9.5-2.9-4.1-6.1-9.2-9.3-15.1-3.1-5.9-6.2-12.6-9.3-19.8-1.5-3.5-2.9-7-4.2-10.5-1.3-3.4-2.5-6.8-3.8-10-.3-.7-.5-1.3-.8-2 .2 0 .5-.1.7-.1 1.2-.1 2-.2 2.5-.4.7 1.7 1.5 3.5 2.3 5.3 3.5 7.9 7.1 15.3 10.6 22 3.5 6.6 7 12.5 10.1 17.2 3.1 4.8 5.7 8.5 7.6 11 1.9 2.5 3 3.8 3 3.9l-2.3-4.3c-1.5-2.8-3.6-6.8-6-11.9-2.5-5-5.3-11.1-8.4-17.8-3-6.7-6.3-14.2-9.7-22-.7-1.6-1.4-3.2-2.1-4.7 2.4-.5 1.3-2.8 5.1-4.1 1.3 3.6 2.6 7.2 4 11 3.5 9.7 7.1 18.9 10.7 27.2 3.6 8.3 7.3 15.6 10.6 21.6 3.4 6 6.4 10.6 8.6 13.6 2.2 3.1 3.5 4.7 3.5 4.7s-1-1.8-2.8-5.2c-1.8-3.3-4.2-8.2-7-14.4-2.7-6.1-5.7-13.5-8.8-21.8-3.1-8.3-6.3-17.5-9.9-27.2-1.4-3.9-2.9-7.7-4.3-11.4 1.2-.9 2.1-2 3.4-2.8 2.1 5.3 4.2 11.2 6.2 17.4 2.5 7.5 4.9 14.7 7.4 21.2s5.2 12.3 7.7 17c2.5 4.7 4.8 8.3 6.5 10.7 1.7 2.4 2.7 3.6 2.7 3.7 0 0-.8-1.5-2-4.1-1.3-2.6-3-6.5-4.8-11.3-1.9-4.8-3.8-10.6-5.8-17.1-2-6.5-4.1-13.7-6.6-21.3-1.3-3.8-2.6-7.5-4.1-11.1-.9-2.2-1.8-4.3-2.8-6.4.2 0 .5 0 .7-.1 1.6-.1 2.8-.3 3.8-.7 1 1.7 2 3.5 3.1 5.2 2 3.3 4 6.5 6 9.6 1.9 3 3.7 5.9 5.2 8.8 1.6 2.8 2.9 5.6 3.9 8.2 1.1 2.6 1.9 5.2 2.4 7.5 1.1 4.7 1.3 8.7 1.4 11.5 0 2.8-.2 4.3-.1 4.3 0 0 .5-1.4 1.1-4.1.3-1.3.6-3 .7-5 .2-2 .2-4.3 0-6.9-.2-2.6-.7-5.4-1.5-8.4s-1.9-6.1-3.3-9.3c-1.4-3.2-3.1-6.4-4.9-9.6-1.8-3.2-3.7-6.4-5.7-9.7-1-1.6-2-3.2-2.9-4.8.2 0 .5 0 .7.1 2 .6.8-.6 2.4-1.5.4.6.7 1.2 1.1 1.8 2.1 3.3 4.2 6.2 6.2 8.8 1.9 2.6 3.7 5 5.1 7 2.9 4.1 4.6 6.8 4.6 6.8s-.1-.8-.5-2.2c-.4-1.4-.9-3.4-1.9-5.9-.9-2.5-2.2-5.3-3.8-8.3-1.6-3-3.5-6.2-5.6-9.4 0-.1-.1-.1-.1-.2.5-.3.8-.8 1.3-1.7.3-.6.2-1.6-.3-2.9 6.5-3.1 9-7.9 4-18.4-11.4-24.2-40.3-34.1-64.8-22.5z"/><path fill="#26ACBF" d="M1563.8 1142.1c-39.2-17.1-84.4-.2-101 37.8-9.1 20.9-.5 27.4 15.6 31.8-1.5 3.1-3.6 5.7-.2 7.6 3.1 1.7 5.1.5 7.1.1-.7 2.4-1.3 4.9-2 7.4-2.5 9.7-4.8 18.7-7.2 26.8-2.4 8.1-4.9 15.3-7.4 21.3s-4.9 10.8-6.6 14.1c-1.7 3.3-2.7 5.1-2.7 5.1s1.6-1.3 4.4-3.9c2.7-2.6 6.6-6.5 10.7-12 4.1-5.4 8.5-12.4 12.2-20.7 3.8-8.2 7-17.6 9.6-27.4.5-1.8.9-3.5 1.3-5.2 1.8.3 3.5.4 5.2 1.4-.5 1.8-1 3.7-1.4 5.6-2 8.6-3.2 16.7-4.2 24.1l-2.6 19.6c-1.5 11.2-3 18.2-2.9 18.2 0 0 1.1-1.4 2.9-4.2 1.7-2.8 4.1-6.9 6.5-12.2 2.4-5.3 4.9-11.8 7.2-19 2.3-7.3 4.4-15.3 6.3-23.6v-.2c3.6 3.1 5.1-1.8 11.8 2.9-.4 1.1-.7 2.2-1.1 3.3-2.7 8.2-6.2 20.8-8.1 35.6-1.2 9.4-1.2 15.4-1.2 15.4s3.2-5.1 7.6-13.4c4.4-8.3 10-19.9 14.4-33.5.4-1.2.8-2.4 1.1-3.6 2.1.6 4.4 1.8 7.1 4.6 1.6 1.6 3 2.8 4.3 3.6-2.6 4.2-5.5 8.6-8.3 13.2-4.1 6.7-7.7 13.3-10.7 19.7-3 6.3-5.3 12.3-6.8 17.4-1.6 5.1-2.4 9.4-2.9 12.3-.5 3-.6 4.6-.6 4.6s3.5-5.6 9.5-14c3-4.2 6.6-9.1 10.6-14.6s8.3-11.6 12.5-18.5c2.9-4.8 5.5-9.6 7.7-14.4.9.3 1.8-1.6 5.5 1.1 4.9 3.6 4.9 3.6 8.4 3 1-.2 2.2-1.4 3.2-3.3 10.4 4.5 18.7 2.5 26-14.4 16.7-37.6-1.6-82.4-40.8-99.5z"/><g fill="#4EC3C7"><path d="M1755.6 583.6v-21c0-14.9 6.3-28.1 16-36.3h-1.5c-13 0-21.9 23.2-43.8 36.9-15.9-10.2-44.2-25.3-77.9-31 9-8.4 20.9-14.3 34.2-16.4-1.1 0-2.1-.1-3.2-.1-16.4 0-31.3 5.7-42.5 14.9-4.9-.5-9.8-.8-14.8-.8-65.3 0-86.8 43.1-86.8 43.1s21.4 43.1 86.8 43.1c5 0 10-.3 14.8-.8 11.2 9.3 26.1 14.9 42.5 14.9 3.7 0 7.4-.3 11-.9-15.7-.7-29.8-6.6-40.4-15.9 32.9-5.9 60.5-20.6 76.2-30.6 21.8 13.7 31.1 36.8 44 36.8h1.5c-9.7-7.8-16.1-21-16.1-35.9zm51.6 119.2v-12.7c0-9 4.3-17 10.8-21.9h-1c-8.7 0-14.7 14-29.6 22.3-10.8-6.1-29.8-15.3-52.5-18.7 6.1-5.1 14.1-8.6 23-9.9h-2.2c-11 0-21.1 3.4-28.7 9-3.3-.3-6.6-.5-10-.5-44.1 0-58.5 26.1-58.5 26.1s14.4 26.1 58.5 26.1c3.4 0 6.7-.2 10-.5 7.6 5.6 17.6 9 28.7 9 2.5 0 5-.2 7.4-.5-10.6-.4-20.1-4-27.3-9.6 22.2-3.5 40.8-12.5 51.4-18.5 14.7 8.3 20.9 22.3 29.7 22.3h1c-6.4-5-10.7-13-10.7-22z"/><path d="M1589.5 677.7v-34.4c0-24.4 10.3-45.9 26.2-59.3h-2.5c-21.2 0-35.7 38-71.7 60.4-26.1-16.6-72.2-41.3-127.3-50.6 14.8-13.7 34.1-23.4 55.8-26.8-1.7-.1-3.5-.1-5.3-.1-26.8 0-51.1 9.3-69.5 24.4-7.9-.8-16-1.2-24.2-1.2-106.8 0-141.8 70.5-141.8 70.5s35 70.5 141.8 70.5c8.2 0 16.3-.5 24.2-1.2 18.3 15.2 42.7 24.4 69.5 24.4 6.1 0 12.1-.5 17.9-1.4-25.6-1.2-48.7-10.8-66.1-25.9 53.8-9.6 98.9-33.7 124.6-50.1 35.7 22.5 50.8 60.2 71.9 60.2h2.5c-15.7-13.5-26-35.1-26-59.4z"/></g><path fill="#009CB3" d="M2127.9 1420.1c-4.1-1.8-9.7-3.9-16-4.9-.5-.1-1-.1-1.5-.2 4.4-1.8 8.1-4.4 10.7-6.8 2.9-2.5 4.3-4.7 4.3-4.7s-2.5-.3-6.3-.3c-1.4 0-3 .1-4.7.2 1.7-2.2 2.7-3.9 2.7-3.9s-1.8-.6-4.5-.9c2.6-2.4 4.7-5 6.3-7.1 2.2-3 3.5-5.2 3.5-5.2s-2.6-.1-6.4.8c-1 .2-2 .5-3.1.8 5-9.1 5.8-18.2 5.8-18.2s-9.8 5-16.3 15.1c-.3.5-.6 1-1 1.6-.7.3-1.8.8-3.1 1.5-1.7 1-3.6 2.5-5 4.5.7-2.3 1.2-5.1 1.2-8-.1-8.6-5.4-15.7-5.4-15.7s-5.4 7-5.2 15.9c0 2.5.5 4.9 1.2 7l-.6.3c-.2-.9-.5-1.7-.8-2.6-1.9-5.8-5-10.5-7.6-13.8-2.6-3.3-4.7-5.1-4.7-5.1s-.4 2.7-.4 6.9c.1 3.3.4 7.3 1.5 11.7l-.9-.3c-2.4-.8-4.2-1-4.2-1s-.2 1.8.1 4.3c.3 2.5 1.1 5.6 3.2 8.1.7.8 1.5 1.5 2.3 2.1v.1c-.4-.3-.7-.6-1.2-.8-1.8-2.2-4-4.4-6.8-6.3-2.3-1.6-4.9-2.8-7.3-3.7-2.4-.8-4.8-1.2-6.8-1.4-4-.3-6.5.5-6.5.5l4.4 4.4c1.3 1.3 2.8 2.7 4.5 4.3 1.7 1.5 3.5 3.1 5.7 4.6.8.6 1.7 1.1 2.5 1.6.2.5.4 1 .6 1.4h-.1c-5.9-1.7-11.7-1.3-15.7-.5-4.1.9-6.5 2.1-6.5 2.1s2.3 1.4 5.8 3.2l2.4 1.2c-1.3.6-2 1-2 1s1.9 1.4 5.1 3c2.7 1.3 6.1 2.8 10 3.6-.4.1-.7.2-1.1.4-5.3 1.9-9.7 4.8-12.8 7.2-3.1 2.4-4.9 4.4-4.9 4.4s2.6.5 6.6.6c4 .1 9.3-.3 14.7-2.3 3.9-1.4 7.2-3.4 9.9-5.4-.6 2.1-.6 3.7-.6 3.7s1.7.4 3.9.3c2.2 0 4.8-.3 6.8-1.7 1.7-1.1 2.8-2.8 3.6-4.5.3.4.6.9.9 1.3 1.2 1.7 2.8 3.3 4.7 4.6 3.8 2.6 7.9 3.5 11 3.8 3.1.3 5.3.1 5.3.1s-.8-2-2.6-4.6c-.9-1.4-2.1-2.9-3.5-4.4 2.1.7 4.4 1.2 6.8 1.6 6.5 1 12.6.5 17-.4 4.4-.8 7.2-1.9 7.2-1.9.5.2-2-1.4-6.1-3.2zm393-68.3c-9.5 3.9-22.2 10.2-34.8 19.5-7.9 5.9-14.8 12.1-20.4 18-.2-1.8-.5-3.5-1-4.8-.4-1.2-.9-2.2-1.3-3 .9-2.8 1.8-5.7 2.7-8.7 3.3-11.7 5.9-24.7 8.3-38.1 2.4-13.5 4.7-26.2 7.6-37.4 1.4-5.6 3-10.9 4.8-15.7 1.8-4.8 3.7-9.2 5.7-13.1 4-7.8 8.3-13.6 11.6-17.4 3.3-3.8 5.4-5.7 5.4-5.7s-2.5 1.3-6.6 4.4c-2 1.6-4.4 3.6-7 6.2-2.6 2.6-5.4 5.8-8.1 9.5-2.7 3.8-5.4 8.1-7.9 13s-4.8 10.3-6.8 16c-4.1 11.5-7.1 24.6-9.5 38.2-.4 2.2-.8 4.3-1.1 6.5 0-1 .1-1.9.1-2.9.2-8.3-.4-15.9-1.5-22.1-1.1-6.2-2.6-11.1-3.8-14.4-1.2-3.3-2.1-5-2.1-5s.2 1.9.4 5.3.3 8.4-.1 14.4c-.3 6-1.1 13.1-2.3 20.9-1 6.6-2.4 13.8-3.8 21.3 0-1.1.1-2.1.1-3.2.2-11.2-.9-23.5-3.2-36-2.3-12.6-5.4-24.2-8.5-34.7-3.1-10.5-6.1-19.8-8.6-27.6-5-15.7-7.8-25.5-7.9-25.5 0 0 0 2.6.3 7.2s.9 11.3 2.1 19.6c1.2 8.2 2.9 17.9 5 28.6 2.1 10.7 4.5 22.3 6.7 34.5s3.9 23.7 4.7 34.3l.3 5.1c-1.6-4.4-3.4-8.5-5.2-12.2-2.8-5.7-5.4-10.6-7.7-14.8-4.5-8.3-7.2-13.6-7.2-13.6s0 1.5.3 4.2c.2 2.7.8 6.6 1.8 11.3 1 4.7 2.4 10.3 4.2 16.3 1.6 5.6 3.5 11.6 5.3 17.8-1.4-.8-2.6-1.5-3.7-2.1-.1-.3-.1-.6-.2-1-1.2-5.8-2.6-11.9-4.2-18.2-.8-3.2-1.7-6.4-2.7-9.7l-.8-2.5-.4-1.2-.4-1.2c-.6-1.6-1.1-3.2-1.7-4.8-4.7-13-9.7-25-14.2-35.8-4.5-10.9-8.6-20.7-11.7-29-6.4-16.6-9.4-27.4-9.5-27.4 0 0 .1 2.8.7 7.8.5 5 1.6 12.3 3.5 21.2 1.9 8.9 4.7 19.3 8.3 30.7 3.6 11.4 8 23.6 12.6 36.4l1.7 4.8.8 2.3.8 2.3c1 3.1 2 6.1 2.9 9.2l5.3 17.7c2.5 8.3 5.1 15.9 7.9 22.7l-1.1-1.1s0 .1-.1.2c-.5-.9-1-1.8-1.5-2.8-4.6-8.6-9.9-17.9-16.1-27.3-6.2-9.4-12.7-18.1-19-25.5-6.3-7.5-12.5-13.8-17.9-18.9-5.4-5.1-10-8.9-13.3-11.5-3.3-2.6-5.1-3.9-5.1-3.9l3.9 5.1c2.5 3.3 6.1 8 10.4 13.9 4.3 5.9 9.3 13 14.6 20.9 5.4 7.9 11.1 16.7 17.2 26s11.9 18.1 17.4 26.1c2.4 3.6 4.7 6.9 7 10.1.1 1.2.4 2.4.8 3.7-.9-.8-1.7-1.6-2.6-2.3-6.1-5.4-13-11.2-20.7-16.7-7.7-5.5-15.4-10.2-22.7-14.1-7.3-3.9-14.1-6.8-20-9-5.8-2.2-10.7-3.6-14.1-4.5-3.4-.9-5.3-1.2-5.3-1.2s6.6 4 16.8 10.7c5.1 3.4 11 7.5 17.6 12.1 6.5 4.6 13.6 9.8 21.2 15.1 11.2 8 21.7 15.3 30.7 21.2 9.5-7.4 23.1-12.3 38.5-13.1.2-.6.3-1.2.4-1.7 8-5.6 18.3-12.8 29.2-20.9 12.1-9 23-17.5 30.9-23.6 8-6.2 12.9-10.2 12.9-10.2-.3-.6-6.5.9-16 4.8zm-814.2 100.7c-.4 0-.7 0-1.1.1-5.3.4-9.4 1.5-12.1 2.5-2.7 1-4.1 1.8-4.1 1.8 0 .1 6.4.1 15.6 2.8 3.9 1.1 8.3 2.6 13.3 4.4.1.1.2.3.4.4 19.6-1.5 55-3.8 82.4-4 20.7-.1 38.9-6 54-12 .4-.6.9-1.1 1.4-1.7 2.9-3.9 5.9-9 8.4-14.8 2.5-5.8 4.7-12.3 6.4-19.1 1.7-6.8 3-13.1 4.2-18.8 1.2-5.7 2.5-10.8 3.8-15.1 2.6-8.6 5.3-13.9 5.2-14 0 0-1.3.8-3.4 2.4-2.1 1.7-5 4.3-8.1 8.2-3.1 3.8-6.2 8.8-8.9 14.6-2.7 5.8-4.9 12.3-6.6 19.2-.6 2.5-1.2 5-1.7 7.4-.1-.1-.2-.3-.2-.4-1.5-2.7-3.2-5-4.7-6.8-.2-.2-.3-.4-.5-.5 0-2.7-.1-5.4-.3-8.1-.8-9.4-3-17.9-4.9-25.4-2-7.5-3.8-14-5.1-19.7-2.6-11.2-2.6-18.7-2.7-18.7 0 0-.8 1.7-1.8 4.9s-2.1 8.1-2.6 14.2-.3 13.4.4 21.2c.7 7.8 1.8 16.2 2.6 24.6.8 6.7.8 13.1.4 19.1 0-.1 0-.2-.1-.3-1.3-5.5-3-10.4-4.8-14.8-1.8-4.4-3.5-8.3-5-11.6-3-6.6-4.8-10.9-4.9-11 0 0-.4 1.1-.9 3.2s-1 5.2-1.3 9c-.2 3.8-.2 8.3.3 13.2.5 4.9 1.4 10 2.6 15.2 1 4.5 2.2 8.7 3.3 12.5-1.5.6-3.2 1.2-4.9 1.8-.1-.7-.2-1.5-.4-2.1-.8-3.6-2-6.6-3.2-9.1-2.5-5-4.9-7.6-4.9-7.6s-1 3.5-2.1 8.5c-.4 1.7-.8 3.5-1.1 5.4-2.4-.9-4.3-1.6-5.1-1.9 4.1-13.7 7.4-26.4 9.9-35.7 2.6-9.5 4.5-15.5 4.5-15.5s-1.2 1-3.2 3.1-4.7 5.2-7.7 9.4c-5.2 7.2-11.2 17.5-15.6 29.9 0-1.1-.1-2.2-.1-3.4-.3-8.1-1-15.7-1.8-22.6-.8-6.9-1.6-13.1-2.3-18.3l-2.2-17.2s-2.7 6.2-4.9 16.9c-1.1 5.3-2.1 11.7-2.6 18.8-.5 7.1-.7 14.9-.4 22.9.3 8.1 1 15.6 1.7 22.5l.3 2.5.2 2.5c0 .5.1 1 .1 1.4-.5-2-.9-4.1-1.4-6.2-1.8-8-3.6-16.8-5.5-26-2-9.3-4-18.1-6-26.2-2-8.1-4.1-15.4-6-21.5-3.8-12.2-7-19.6-7-19.6s-.2 8 0 20.7c.1 6.4.4 13.9 1.1 22.3.7 8.4 1.9 17.6 3.9 27.2 2 9.6 4.8 18.6 8 26.6.5 1.3 1 2.5 1.6 3.8-.7.1-1.4.1-2.1.2-2.7-3.6-5.4-7.5-8-11.4-10.2-15.1-18.6-29.7-24.6-40.6-3-5.4-5.3-10-7-13.1l-2.6-4.9s.1 2 .5 5.5 1.1 8.7 2.5 14.9c1.4 6.2 3.4 13.6 6.6 21.5 3.1 7.9 7.3 16.4 12.9 24.6 1.1 1.7 2.3 3.3 3.5 4.9l-5.1.4c-2.2-2.7-4.5-5.5-7-8.1-.9-3.8-2.2-7.9-3.8-12.1-2.5-6.7-5.9-13.8-10.1-20.8-4.1-7-8.6-13.3-12.8-18.8-4.2-5.5-8.2-10.3-11.6-14.4-6.8-8-11.3-13.1-11.3-13 0 0 1.3 6.6 5.2 16.7 1.9 5 4.5 10.8 7.6 17.1 3.1 6.3 6.8 12.9 10.8 19.7 1.3 2.2 2.5 4.2 3.8 6.3-1.4-1-2.7-2-4-3-7.2-5.3-11.9-8.4-11.9-8.4s2 5.4 6.7 13.2c2.3 3.9 5.3 8.4 8.9 13 2.9 3.8 6.1 7.6 9.7 11.5-.9.1-1.8.3-2.6.5l-.6-.9c-3.8-5.8-8.7-11.6-14.5-17-5.8-5.4-12-9.7-17.9-13.1-5.9-3.4-11.5-5.9-16.3-7.8-9.6-3.7-15.9-4.8-15.9-4.8s4.7 4.4 12.2 10.9c7.5 6.6 17.6 15.4 28.2 25.3 2.8 3 5.9 5.9 8.8 8.6zm96.6-19.5c.1 1.3.4 3.3 1.3 5.7.5 1.4 1.1 3 2 4.6-1.2.4-2.4.8-3.6 1.1-1.2.4-2.4.7-3.5 1.1 1.3-3.9 2.5-8.1 3.8-12.5zm2221.9 35.9c-1.6-3.7-3.6-7.6-6.2-11.4-2.5-3.8-5.3-7.2-7.9-10.1-2.6-2.9-5.1-5.4-7.3-7.4-4.4-4-7.3-6.2-7.3-6.2s2 3.1 5.3 8 7.9 11.5 12.8 18.7c2.4 3.7 4.7 7.2 6.6 10.4 1.9 3.3 3.5 6.3 4.6 8.9 2.3 5.3 3 8.9 3.1 8.9 0 0 .1-.9.2-2.6 0-1.7-.1-4.1-.7-7.1-.6-2.9-1.6-6.4-3.2-10.1zm5-19.9c-.7-4.8-1.8-9.3-2.8-13.4-1.1-4.1-2.2-7.6-3.3-10.6-2.1-6-3.7-9.6-3.7-9.6s.3 3.9 1.1 10.2c.8 6.3 2 14.8 3.5 24.2.7 4.7 1.4 9.1 2 13.2.6 4.1 1 7.8 1.4 10.9.4 3.1.6 5.7.8 7.4l.3 2.7s.2-1 .6-2.7c.3-1.8.7-4.3 1-7.5.3-3.2.5-7 .4-11.2-.2-4.2-.5-8.8-1.3-13.6zm10.2-22.9c-.3-4.2-.6-8.1-.8-11.3-.5-6.4-1-10.4-1-10.4s-.9 3.9-1.7 10.4c-.4 3.2-.8 7.1-1 11.3-.2 4.3-.3 9-.3 13.9.1 4.9.3 9.6.5 13.8.3 4.2.5 8.1.8 11.3.5 6.4.9 10.4.9 10.4s.9-3.9 1.8-10.4c.4-3.2.8-7.1 1-11.3.2-4.3.4-9 .3-13.9s-.2-9.5-.5-13.8zm24.8-22.6c2.2-8.4 3.5-13.7 3.5-13.7s-2.5 4.8-6 12.8-7.9 19.3-11.6 32.1c-1.9 6.4-3.3 12.6-4.5 18.3-1.1 5.7-1.9 10.8-2.5 15.2-1.1 8.7-1.3 14.1-1.3 14.1l3.9-13.6c1.2-4.2 2.6-9.1 4.3-14.6l5.2-17.9c3.6-12.7 6.8-24.3 9-32.7zm13.8 20.1c2.6-4.9 5.1-9.2 7.2-12.8s4-6.5 5.3-8.5l2-3.1s-1 .9-2.7 2.6c-1.7 1.7-4.1 4.2-6.8 7.5s-5.8 7.4-8.9 12.1c-3.1 4.8-6.1 10.2-8.9 16.1-2.8 5.9-5 11.7-6.9 17-1.9 5.3-3.3 10.2-4.5 14.2-2.3 8.2-3.5 13.3-3.5 13.3s2.4-4.7 6-12.4c1.8-3.8 3.9-8.4 6.2-13.5 2.3-5.1 4.8-10.6 7.5-16.4 2.7-5.7 5.4-11.2 8-16.1zm1.8 19.5c-.1-2-.3-3.5-.4-4.6-.1-1.1-.2-1.7-.2-1.7s-.2.6-.6 1.6c-.4 1-.9 2.6-1.4 4.5-.5 1.9-1.1 4.2-1.6 6.6-.5 2.5-1.1 5.2-1.6 8s-1 5.5-1.4 7.9c-.5 2.4-1 4.5-1.6 6.3-.6 1.8-1.2 3.2-1.8 4.1-.5.9-.9 1.4-.9 1.4s.6-.2 1.5-.9c.9-.6 2.2-1.7 3.5-3.4 1.3-1.6 2.5-3.8 3.6-6.3 1-2.5 1.8-5.3 2.4-8.3.5-3 .7-5.9.8-8.5-.1-2.4-.2-4.7-.3-6.7zm16.1-16.1c0-6.7-.4-10.9-.4-10.9s-1 4.1-2.3 10.6c-1.3 6.6-2.9 15.6-4.7 25.5-.9 4.9-1.8 9.6-2.7 13.9-.9 4.3-1.9 8.1-2.7 11.3-.9 3.2-1.7 5.8-2.3 7.6-.6 1.8-.9 2.8-.9 2.8s.6-.8 1.7-2.4c1-1.6 2.5-3.9 4-7 1.5-3 3.1-6.8 4.6-11 1.4-4.3 2.7-9 3.6-14.1.9-5.1 1.5-10 1.8-14.4.3-4.5.3-8.5.3-11.9zm-87.9 46.3c-.7-1.6-1.4-3.2-2.2-5-1.6-3.6-3.4-6.8-4.9-9.1-1.5-2.3-2.6-3.7-2.6-3.7s-.1 1.8.1 4.5c.1 1.4.3 3 .7 4.8.4 1.8 1 3.7 1.9 5.7.9 1.9 2 3.7 3.2 5.2 1.2 1.5 2.5 2.7 3.6 3.5 1.2.9 2.2 1.4 2.9 1.7s1.2.4 1.2.4-.9-1.5-2.1-3.9c-.5-1.2-1.1-2.6-1.8-4.1zm-15.2-20.6c-1.4-7-2.7-13.4-3.7-18-1-4.7-1.7-7.6-1.7-7.6s-.6 3-.9 7.8c-.2 2.4-.2 5.3-.1 8.5.2 3.2.5 6.7 1.3 10.4.7 3.6 1.7 7 2.7 10.1 1.1 3 2.2 5.7 3.2 7.9 2.1 4.4 3.7 6.9 3.7 6.9s-.4-3-1.2-7.7c-.8-4.9-2-11.3-3.3-18.3zm-11.7 13c-1.7-4-4-8.6-7.1-13.4-3-4.8-6.8-9.9-11.2-14.8-4.4-4.9-9-9.2-13.3-12.9-4.3-3.7-8.4-6.7-11.9-9.2-3.5-2.5-6.4-4.4-8.4-5.7-2-1.3-3.1-2-3.1-2l2.6 2.6 7.2 7.1c3 3 6.6 6.5 10.5 10.5 3.9 4 8.1 8.4 12.4 13.1 4.3 4.8 8.1 9.4 11.5 13.8 3.3 4.4 6.2 8.5 8.4 12.1 2.2 3.6 3.9 6.6 5.1 8.7 1.1 2.1 1.7 3.3 1.7 3.3s-.3-1.3-1-3.6c-.6-2.4-1.7-5.7-3.4-9.6zm-12.3 5.7c-1.9-2.3-4.4-4.9-7.5-7.4-3.1-2.6-6.7-5.1-10.7-7.3-4-2.2-8-3.9-11.7-5.2-3.7-1.3-7.1-2.3-10-3-5.7-1.5-9.4-2-9.4-2s3.2 1.8 8.4 4.5l9.1 4.7c3.4 1.8 7.1 3.7 10.9 5.8 3.8 2.1 7.4 4.2 10.6 6.2 3.2 2 6 4 8.3 5.7 2.3 1.7 4.2 3.2 5.4 4.3l2 1.7s-.4-.8-1.3-2.2c-.8-1.5-2.1-3.5-4.1-5.8zm-602.1 1.6c5.3-5.3 0-7.3 1.3-21.3s-34.7-8-18-24.7-14.7-32-5.3-37.3 13.3-27.3 24.7-18 23.3-2.7 25.3 6 12 4 12 21.3 4.7 23.3 17.3 26 10-14.7 15.3-10.7 10-18 14.7-19.3.7-20.7 12.7-16.7 24.7-14 34 4.7 8 8.7 4 26.7-22 23.3-13.3 30.7 8.7 5.3 20.7 7.3 15.3-9.3 28.7-.7 26-8.7 28.7 6 8 18-11.3 23.3-42 4-70.7 4-120.8-7.3-120.8-7.3zm-569-47.7c5-4.3-6.7-17.3-2-22.7s1-14 5-22.3-3.3-18.3 5-25.7 1.7-29.7 8.3-30.3 5.3-22.7 14-16.7 15.7 4.7 9.3 18.7 1 11.3-.7 23.7-11 6.7-6 19.3-.7 11.3 5.3 18.7 3 9.7 8.7 11.7 5.7 2.3 13.7-3.7 6.7-9.7 11.3-17.3-2.7-19 8.3-19.3 20-16.7 25.3-9 7.7 3.7 4.7 17-13.7 16.7-10.3 25.7-1.3 5.7 2.3 13 .7 13 10 11.3 5.3-5.7 13-7.3 10.3-15 19.7-10.3 13-.3 16.3 9.7-14.3 10.7-14.7 17.7-2 1.3-7.3 9.7-26.3 17-49 10-40.3-18.3-54.7-17-35.5-4.6-35.5-4.6z"/><path fill="#009CB3" d="M2808 1423.3c1-.7-22.3-24-23-25.3s-31.7-32-33.7-32.7-38.7 8.3-38.7 8.3h-15.3l-15-6s-19.7 2-20.7 3.7-28.6 13.7-28.6 13.7-8.7 4.3-12 4.7-13-1.3-15 .7-5.3 19.3-5.3 19.3 47.7 14 62.3 15.3 69 5.3 81.3 6 63.7-7.7 63.7-7.7zM1235 1451s23.3-24.7 24.7-26.7 24.7-14 34.7-13.3 26 6 28 8.7 6 11.3 6.7 13.3 9.3 20 9.3 20-48 12.7-55.3 11.3-48.1-13.3-48.1-13.3zm138 4 12.7-8.7s16.7-6.7 18.7-7.3 17.3 2 20.7 2 10.7 2.7 12.7 6.7 2 12.7 2 12.7-36.7 4.7-40.7 4.7-26.1-10.1-26.1-10.1zm1865.8-11.4c-5.6 2.2-13.3 5.4-21 10.5-3.9 2.5-7.4 5.3-10.3 8.2-1.2 1.2-2.3 2.3-3.3 3.5 3.9-5.4 8.6-11.5 13.5-18.1 7.5-10.2 13.8-19.7 18.3-26.8 4.4-7.1 6.8-11.8 6.8-11.8s-3.9 3.5-9.8 9.4-13.9 14.4-21.4 24.7c-2.2 3-4.2 6-6.1 9l3.4-13.5c3.4-13.9 6.3-26.5 8.3-35.8 2-9.3 3-15.1 3-15.1s-2.9 5.2-6.7 13.9c-3.8 8.7-8.6 21-12.1 35.1-2.1 8.6-3.5 16.9-4.3 24.2-.4-8-1.2-16.9-2.7-26.2-2.8-17.6-7.3-33.1-11-44.1s-6.6-17.6-6.6-17.7c0 0 1 7.1 2.9 18.6l7.2 44.4c1.3 8.1 2.5 15.8 3.5 22.9-3.1-6.3-7.3-13.8-13-21.3-7.1-9.4-15.2-16.6-21.4-21.2-6.2-4.6-10.5-6.7-10.5-6.7l7.9 9.5c4.8 5.9 11.1 14 18 23 4.1 5.4 8.1 10.6 11.6 15.1-1.4-1.4-2.9-2.8-4.6-4.1-6.7-5.4-13.5-8.9-18.5-11.3-5-2.4-8.3-3.6-8.3-3.6s2.2 2.8 6.1 6.7c3.9 4 9.6 9 15.9 14.1 5.2 4.2 10 7.9 13.8 11.1 2.6-.4 5.4-.6 8.1-.6 3.8 0 7.5.4 11 1.2 4.4-3 9.8-6.5 15.6-10.3 7.4-4.8 14.1-9.7 18.8-13.6 4.7-3.8 7.3-6.6 7.3-6.6-.2 0-3.8 1.2-9.4 3.3z"/></svg>