<svg xmlns="http://www.w3.org/2000/svg" viewBox="0 0 5100 3000" xml:space="preserve"><path fill="#FDC" d="M0 0h5100v3000H0z"/><path fill="#FFE5D9" d="M5085.1 1320.1c-121.4-20.7-254-36.3-394.4-45.8-109.9-7.4-260.8-76.6-359.3-125.9-249.7-124.9-708.1-208.7-1232.2-208.7-457.3 0-864.6 63.7-1126.9 163-103 39-266.1 68.1-375 51.6-195.4-29.7-416.8-46.5-651.4-46.5-362.5 0-693.6 159.6-945.9 225.6v520.4c252.3 66 583.4 106.1 945.9 106.1 457.3 0 864.6-63.7 1126.9-163 103-39 266.1-68.1 375-51.6 104.5 15.9 216.4 28.1 333.9 36 109.9 7.4 260.8 76.6 359.3 125.9 249.7 125.1 708 208.8 1232.2 208.8 259.1 0 502.2-20.5 711.9-56.3v-739.6z"/><path fill="#FDC" d="M3150.8 1146.4s-194.4-48-392.8 11c0 0-139.6-25-272.2 31 0 0-86.7-18-168.5 21 0 0 116.7-31 168.5-3 0 0 138.6-64 278.2-19 0 0 220.4-69 372.9-2l13.9-39z"/><path fill="#FDC" d="M3251.5 1025.3s-694-56.7-1282.2 139.4c0 0-239.3-14-378.9 70 0 0-97.7-42-253.3-17.3 0 0 178.8-.7 251.3 46 0 0 198.8-87.4 388.9-62 0 0 602.2-188.1 1254.3-112l19.9-64.1zM823.1 1147.4s130.1-40 237.3.5c0 0 105.2-33.5 199.9 17 0 0 59.8-12.5 103.7 13 0 0-45.4-14.5-105.2-5.5 0 0-86.7-49-199.9-13 0 0-77.3-40.5-235.8-12z"/><g fill="#FFE5D9"><path d="M742 768.4c132.1-10.8 266.5 9.3 369.8 37.9 74.4-35.7 164.7-60.2 263.1-68.3 189.5-15.5 359 34.3 448.2 120.2 4.3-.5 8.7-1 13.2-1.4 80.1-6.5 150.2 17.8 176.4 57.2-15.6-47.3-88.6-83.1-176.4-83.1-4.4 0-8.9.1-13.2.3-82-92.9-246.9-156.3-437-156.3-98.8 0-190.7 17.1-267.8 46.6-100.7-36.9-223.5-58.6-356-58.6-342 0-619.2 144.5-619.2 322.7 0 32.6 9.3 64 26.5 93.7C218.2 929.6 446.2 792.5 742 768.4zm2780-132.6c43.4 2.8 81.9 21.9 109.9 50.9 87.6-94.9 270.3-153.1 477.2-139.9 130 8.3 247 43.3 334.6 94.3 43-19.5 91.2-29.1 141.6-25.9 146.8 9.3 262 123.8 277.5 265.6 5.2-22 7.9-45 7.9-68.6 0-165.2-133.5-299.1-298.1-299.1-50.5 0-98 12.6-139.7 34.8-90.6-45.3-209.6-72.8-339.9-72.8-207.3 0-386 69.6-467.4 169.9-29.8-27.3-69.4-43.9-112.9-43.9-92.5 0-167.5 75.2-167.5 168.1 0 3.6.1 7.2.4 10.8 12-86.1 88.4-149.8 176.4-144.2zm1250.1-332.9c-5.8-20.1-21.9-35.8-42.2-40.9-2-18.3-17.4-32.5-36.2-32.5-18.2 0-33.3 13.4-36 30.9-6.5-4.2-14.3-6.6-22.6-6.6-1.6 0-3.3.1-4.8.3-10.3-13.1-26.3-21.4-44.2-21.4-24.7 0-45.7 15.9-53.3 38.1h-1c-5.4 0-10.5.8-15.5 2.1-5.6-4-12.5-6.4-19.9-6.4-13.1 0-24.5 7.4-30.3 18.3-4.9-2.9-10.6-4.6-16.6-4.6-18.1 0-32.7 14.7-32.7 32.8 0 8 2.8 15.3 7.6 21-.1 1.3-.2 2.6-.2 3.9 0 23.1 17.4 42.2 39.8 44.7 9.1 17.8 27.5 29.9 48.8 29.9 16.3 0 31-7.2 41-18.5 9.5 13.8 25.4 22.8 43.3 22.8 17.7 0 33.4-8.8 43-22.3 8.9 4.8 19 7.5 29.8 7.5 19.8 0 37.5-9.1 49.1-23.4 9.1-.6 17.7-3.2 25.2-7.5 5.2 2.8 11.2 4.4 17.5 4.4 20.4 0 36.9-16.6 36.9-37 .1-16.9-11.1-31.1-26.5-35.6zm-968.3 66.2c0-14.3-10-26.2-23.3-29.3.9-2.9 1.3-6 1.3-9.3 0-18-14.5-32.5-32.4-32.5-7.5 0-14.5 2.6-20 6.9-6.4-11.9-18.9-19.9-33.3-19.9-12.4 0-23.4 6-30.3 15.2-1-.1-2.1-.1-3.1-.1-13.3 0-24.9 7.6-30.6 18.7-9.2-9.1-21.8-14.7-35.7-14.7-15.1 0-28.7 6.6-38 17.2-3.2-.7-6.5-1.2-9.8-1.2-17.7 0-32.9 10.7-39.4 26.1-9.2.5-16.4 8.1-16.4 17.5 0 9.5 7.5 17.2 16.9 17.5 6.3 13.8 19.7 23.6 35.4 24.9 3.1 8.3 11.1 14.2 20.5 14.2 9.7 0 17.9-6.3 20.8-15 3.3.7 6.6 1 10.1 1 9.3 0 18.1-2.5 25.6-6.9 7 7.3 16.8 11.9 27.8 11.9 6.9 0 13.4-1.9 19.1-5.1 9.5 16.2 27.1 27.1 47.2 27.1 13 0 25-4.6 34.4-12.2 4.4 3.9 10.1 6.2 16.4 6.2 13.8 0 24.9-11.2 24.9-25 0-2.8-.5-5.5-1.3-8.1 8-5.5 13.2-14.7 13.2-25.1zm-1833-226.4c-6.5 0-12.8 1.3-18.5 3.5-.1-.6-.3-1.1-.4-1.7-5.5 2.8-10.1 7.3-12.9 12.9-4.9-3.3-10.7-5.3-17-5.7-13.9-.8-26.3 6.8-32.3 18.4-.9-.2-1.8-.3-2.7-.4-7.8-.4-14.7 4.3-17.4 11.2-3.6-3.6-8.4-6-13.9-6.3-5.7-.3-11.1 1.7-15.1 5.1-3.9-4.4-9.5-7.2-15.7-7.6-11.7-.7-21.8 7.5-23.9 18.8 0-.5-.1-1.1-.1-1.6 0-12.7 10.3-23 22.9-23 6.3 0 12 2.5 16.1 6.7 3.8-3.7 9-6 14.8-6 5.5 0 10.4 2.1 14.2 5.5 2.3-7 8.9-12.1 16.7-12.1.9 0 1.8.1 2.7.2 5.4-11.9 17.3-20.2 31.2-20.2 6.3 0 12.2 1.7 17.3 4.7 2.1-4.8 5.4-8.9 9.6-11.9-7.1-10.5-19.1-17.4-32.8-17.4-6.3 0-12.2 1.5-17.5 4.1-7.4-19.9-26.6-34.1-49-34.1-21.1 0-39.2 12.5-47.5 30.5-5.2-2.7-11.2-4.3-17.5-4.3-21.1 0-38.1 17.1-38.1 38.3v.3c-5-2.4-10.6-3.8-16.5-3.8-20.6 0-37.4 16.8-37.4 37.5s16.7 37.5 37.4 37.5c1 0 2-.1 3-.1 4 35.5 34.1 63.1 70.6 63.1 12.6 0 24.3-3.3 34.6-9 15 21.2 39.7 35 67.6 35 40.6 0 74.4-29.3 81.6-68 21.3-6.1 36.8-25.7 36.8-49 0-28.3-22.8-51.1-50.9-51.1z"/><path d="M1460.2 998.5c.4-1 .6-2 .6-3 0-9.8-19-17.7-42.5-17.7-4.3 0-8.4.3-12.2.7-6.3-12.9-25.3-22.2-47.8-22.2-16.4 0-30.9 5-40 12.6-7.2-3.1-16.6-5.1-26.9-5.1-22.5 0-40.7 9.1-40.7 20.2 0 .9.1 1.7.3 2.5-23 .1-41.6 6.5-41.6 14.5s18.8 14.5 41.9 14.5c9 0 17.3-1 24.1-2.7 7.1 8.6 52.1 15.3 106.6 15.3 59.4 0 107.6-7.9 107.6-17.7 0-4.4-11.1-8.7-29.4-11.9z"/></g><circle fill="#FFE5D9" cx="2782.5" cy="573.5" r="247"/><circle fill="#FFF7D9" cx="2782.5" cy="573.5" r="154"/><circle fill="#FFE999" cx="2782.5" cy="573.5" r="84"/><path fill="#FFF" d="M1821.1 673.6c-11.5-27.6-37-47.8-67.7-51.9-5.6-16.2-20.9-27.8-39-27.8-15.7 0-29.4 8.8-36.3 21.7-9.5-4.3-20.1-6.7-31.2-6.7-13.9 0-26.9 3.8-38.1 10.3-6.1-8.9-16.3-14.8-27.9-14.8-18.6 0-33.7 15.1-33.7 33.7 0 1.4.1 2.7.2 4-19.8 10.8-33.2 31.8-33.2 56 0 35.2 28.5 63.7 63.7 63.7 12.6 0 24.3-3.7 34.2-10 9.6 5 20.4 8 31.9 8.4 6.8 15.1 22 25.6 39.6 25.6 6.5 0 12.7-1.5 18.3-4 12 6.4 25.7 10 40.2 10 25.4 0 48.1-11.1 63.8-28.6 3.8 1 7.8 1.6 12 1.6 25.3 0 45.7-20.5 45.7-45.7.1-24.1-18.7-43.9-42.5-45.5z"/><path fill="#FDC" d="M1561.8 662.5c10-.8 19.5 1.2 27.9 5.3 5.9-9.4 16-16.1 28-17 15.7-1.2 29.9 7.7 36 21.3.7-.1 1.4-.2 2.1-.2 7.4-.6 14.5 1.1 20.5 4.4 5.3-6.6 13.3-11.1 22.4-11.8 14.1-1.1 26.9 7.2 32 19.6.3 0 .6-.1.9-.1 9.8-.8 18.7 4.2 23.6 12-3.7-9.3-12.9-15.9-23.5-15.9h-.9c-4.2-12.8-16.2-22-30.4-22-9.2 0-17.4 3.8-23.2 10-5.8-3.8-12.7-6-20.1-6-.7 0-1.4 0-2.1.1-5-14-18.4-24.1-34.2-24.1-12 0-22.6 5.8-29.2 14.8-8.1-4.7-17.4-7.4-27.4-7.4-30 0-54.3 24.3-54.3 54.3 0 5.1.7 10.1 2 14.8.8-27.2 22.1-49.9 49.9-52.1z"/><path fill="#FFF" d="M845.2 282.7c-12.1-29.6-44.8-46.2-76.4-37.4-1.1.3-2.2.7-3.3 1-28.7-21.1-66.5-29.3-103.5-19-44.1 12.3-75.6 47.7-84.9 89.5-14.8-4.6-31.1-5.2-47.1-.8-44.2 12.3-70 58.1-57.6 102.3 10.3 36.9 44 61 80.6 60.7 13.3 18.6 37.3 27.9 60.6 21.4 9.1-2.6 17.1-7.2 23.5-13.4 19.9 25.3 53.6 37.5 86.5 28.3 26.5-7.4 46.4-27.1 55.1-51.1 23.6 16.5 54.2 22.7 84.2 14.4 53.2-14.8 84.3-70 69.4-123.2-11.4-41.1-47-69-87.1-72.7z"/><path fill="#FDC" d="M560.6 388.5c1.8.1 3.5.4 5.1 1 4.7-18.1 21.5-31.1 40.9-30.2 7.1.3 13.7 2.5 19.4 6 12.3-18.5 33.7-30.2 57.5-29.1 25.7 1.2 47.2 17.1 56.9 39.1 10.1-6.1 22.1-9.5 34.8-8.9 6.4.3 12.5 1.6 18.3 3.6 15-25.6 43.3-42.2 74.9-40.7 42 1.9 75.1 35 78.2 75.8.7-4.3 1.1-8.7 1.1-13.2 0-45.5-36.9-82.3-82.3-82.3-31.7 0-59.2 17.9-72.9 44.1-5.8-1.8-12-2.8-18.4-2.8-12.7 0-24.6 3.9-34.4 10.5-10.7-21.5-33-36.4-58.7-36.4-23.8 0-44.6 12.7-56 31.8-5.8-3.2-12.5-5.1-19.6-5.1-19.4 0-35.7 13.8-39.5 32.1-1.7-.5-3.4-.7-5.2-.7-10.3 0-18.7 8.3-19 18.6 2.6-8.1 10.2-13.6 18.9-13.2z"/><path fill="#FFF" d="M4576.5 788.3c.4-2.8.6-5.7.6-8.6 0-36.5-29.6-66-66-66-3.9 0-7.8.4-11.6 1-9.7-18.8-28.6-32-50.7-33.8-21.4-18.8-49.5-30.2-80.2-30.2-19.1 0-37.2 4.4-53.2 12.3-13.5-10.5-30.4-16.8-48.8-16.8-35.2 0-65.1 22.9-75.5 54.7-13.9 6.6-25.8 16.8-34.4 29.5-1.4-.1-2.7-.2-4.1-.2-29.8 0-54 24.2-54 54 0 12.6 4.3 24.2 11.6 33.4-1.7 6.6-2.6 13.5-2.6 20.6 0 46.4 37.6 84 84 84 18.1 0 34.8-5.7 48.5-15.4 19 21.4 46.7 34.9 77.5 34.9 17.6 0 34.2-4.4 48.7-12.2 19.2 23.9 48.7 39.2 81.8 39.2 22.5 0 43.4-7.1 60.5-19.2 4.7.8 9.6 1.2 14.5 1.2 49.7 0 90-40.3 90-90-.1-29.7-14.4-56-36.6-72.4z"/><path d="m4358.8 837.4-.1-.1c-.1.2-.1.4-.2.6.1-.2.2-.4.3-.5zm-138.6-70c3.4.1 6.7.8 9.7 2 6.4-11.5 18.9-19 32.9-18.6 17.7.6 31.9 13.7 34.6 30.5 5.8-2.3 12.2-3.6 18.8-3.3 14.9.5 27.9 8.1 36 19.4 5.8-11.3 17.8-18.9 31.4-18.4 1 0 2 .1 3 .2 10.4-8.1 23.5-12.7 37.7-12.2 16.7.6 31.5 8.1 41.7 19.7 7.6-3.7 16.1-5.7 25.2-5.4 13.5.5 25.6 5.9 34.7 14.5 9.2-4.4 19.5-6.7 30.4-6.3 36.2 1.2 64.6 31.6 63.4 67.9-.1 2.5-.3 4.9-.7 7.3 3.8-8.3 5.9-17.6 5.9-27.3 0-36.3-29.4-65.7-65.7-65.7-10.9 0-21.1 2.7-30.2 7.4-9.4-8.3-21.7-13.4-35.2-13.4-9 0-17.5 2.3-25 6.2-10.6-11.2-25.7-18.2-42.4-18.2-14.2 0-27.2 5.1-37.3 13.5-1-.1-2-.1-3-.1-13.6 0-25.3 8-30.7 19.5-8.4-11-21.7-18.1-36.6-18.1-6.7 0-13 1.4-18.7 4-3.3-16.7-18-29.3-35.6-29.3-14.1 0-26.2 8-32.3 19.7-3-1.1-6.3-1.7-9.7-1.7-12.3 0-22.8 7.7-27 18.5 5.6-7.8 14.6-12.7 24.7-12.3zm-103.7-49.5c3.1-22.3 23.8-37.9 46.1-34.7 12 1.7 22 8.4 28.3 17.8 4-2.8 8.9-4.1 14.1-3.4 6.6.9 11.9 5 14.8 10.4 2.3-.7 4.8-.9 7.4-.6 6.4.9 11.5 5.1 13.7 10.7-1.2-6.8-6.3-12.5-13.4-14.1-2.5-.6-5-.5-7.4 0-2.4-5.7-7.4-10.1-13.9-11.6-5.1-1.1-10.2-.2-14.4 2.2-5.5-9.8-14.9-17.4-26.7-20-22-5-43.8 8.9-48.8 30.9-1.3 5.7-1.3 11.4-.2 16.8.1-1.5.2-3 .4-4.4z" fill="#FDC"/><path fill="#FFF" d="M2774.3 440.2c0-20.7-14-38.1-33-43.4-.7-31.5-25.4-57.9-57.4-60-17.8-1.2-34.4 5.4-46.4 16.8-10.7-6.4-22.7-10.8-35.5-12.8-4.6-13.1-14.4-23.8-26.9-29.5-8.4-28.7-34.8-49.6-66.2-49.6-32.1 0-59.1 21.9-66.8 51.6-34.3 4-62.2 28.6-71.2 61-30.5 17.6-51 50.6-51 88.4 0 51.8 38.6 94.6 88.6 101.1 7.2 34.8 38 60.9 74.9 60.9 7.9 0 15.5-1.2 22.7-3.4 12.3 13.2 29.8 21.4 49.3 21.4 33.8 0 61.7-24.8 66.7-57.1 29.9-1.7 54.4-23.8 59.7-52.6 1.4.1 2.7.2 4.1.2 27.8 0 50.5-21.6 52.4-48.9 20.5-4.1 36-22.3 36-44.1z"/><path fill="#FDC" d="M2371 390.5c38.1-2.6 71.6 22.5 81 58 4.8-2.1 10-3.4 15.6-3.7 16.9-1.1 32.3 6.6 41.6 19.3 1.8-.4 3.6-.6 5.4-.8 3.4-.2 6.7 0 9.9.6 3.8-14.4 16.4-25.5 32.1-26.5 4.4-.3 8.7.2 12.7 1.4 7.1-12.3 20.1-21 35.4-22 14.7-1 28.3 5.3 37.1 15.9 3.4-1.3 7.1-2.2 11-2.4 15.6-1.1 29.6 7.6 36.1 20.9-3.9-16.5-18.7-28.8-36.3-28.8-3.9 0-7.6.6-11.1 1.7-8.1-11.1-21.1-18.3-35.9-18.3-15.3 0-28.8 7.8-36.8 19.6-3.9-1.5-8.1-2.3-12.5-2.3-15.7 0-29.1 10.2-33.8 24.3-3.1-.8-6.4-1.3-9.9-1.3-1.9 0-3.7.1-5.5.4-8.5-13.3-23.3-22.1-40.2-22.1-5.5 0-10.8 1-15.8 2.7-7-36.1-38.7-63.4-76.9-63.4-43.3 0-78.3 35.1-78.3 78.3 0 6.8.9 13.5 2.5 19.8 3.1-37.8 33.5-68.6 72.6-71.3z"/><path fill="#FFE5D9" d="M2641 581.6c4.1-1.5 8-3.5 11.7-5.8-10.2-12.9-26-21.2-43.7-21.2-9.1 0-17.7 2.2-25.3 6.1-6.8-12.2-19.8-20.4-34.7-20.4-16.9 0-31.3 10.6-37 25.5-3.3-3.2-7.8-5.2-12.8-5.2-9.5 0-17.3 7.2-18.4 16.4 2.7-8 10.5-13.4 19.2-12.6 4.9.5 9.2 2.8 12.3 6.3 7-14.3 22.4-23.5 39.2-22 14.9 1.4 27 10.8 32.7 23.5 7.9-3.2 16.7-4.6 25.8-3.8 11.9 1.2 22.5 6 31 13.2z"/><path fill="#81D0D3" d="M5100 1303c-32.8 7.9-69.8 12.3-109.1 12.3-58.1 0-111.4-9.7-153-25.9-41.6 16.2-94.9 25.9-153 25.9-58.1 0-111.4-9.7-153-25.9-41.6 16.2-94.9 25.9-153 25.9-58.1 0-111.4-9.7-153-25.9-41.6 16.2-94.9 25.9-153 25.9s-111.4-9.7-153-25.9c-41.6 16.2-94.9 25.9-153 25.9-58.1 0-111.4-9.7-153-25.9-41.6 16.2-94.9 25.9-153 25.9s-111.4-9.7-153-25.9c-41.6 16.2-94.9 25.9-153 25.9-58.1 0-111.4-9.7-153-25.9-41.6 16.2-94.9 25.9-153 25.9-58.1 0-111.4-9.7-153-25.9-41.6 16.2-94.9 25.9-153 25.9-58.1 0-111.4-9.7-153-25.9-41.6 16.2-94.9 25.9-153 25.9-58.1 0-111.4-9.7-153-25.9-41.6 16.2-94.9 25.9-153 25.9-58.1 0-111.4-9.7-153-25.9-41.6 16.2-94.9 25.9-153 25.9-58.1 0-111.4-9.7-153-25.9-41.6 16.2-94.9 25.9-153 25.9-58.1 0-111.4-9.7-153-25.9-41.6 16.2-94.9 25.9-153 25.9-58.1 0-111.4-9.7-153-25.9-41.6 16.2-94.9 25.9-153 25.9-58.1 0-111.4-9.7-153-25.9-41.6 16.2-94.9 25.9-153 25.9s-111.4-9.7-153-25.9c-41.6 16.2-94.9 25.9-153 25.9-33.7 0-65.8-3.3-94.9-9.2V3000h5100V1303z"/><path fill="#6AC9CD" d="M0 2581.8h5100V3000H0z"/><path fill="#4EC3C7" d="M2632.4 2803.8c-875-132-1138.1 84-1792.8 108-340.8 12.5-560.6 52.6-693 88.2H4778c-199.6-42.2-469.7-58.9-738.3-106.2-544.5-96-532.3 42-1407.3-90z"/><path fill="#009CB3" d="M2869.4 2933.7c-665-104-852.7 52-1411.7 24-303.2-15.2-635.2 13.2-875.6 42.3h3673.7c-314.4-86.1-820.9 22.1-1386.4-66.3z"/><g fill="#4EC3C7"><path d="M1700 1318.2c-18.1 19-46 31.2-77.3 31.2-31.3 0-59.2-12.2-77.3-31.2-18.1 19-46 31.2-77.3 31.2-31.3 0-59.1-12.2-77.3-31.2-18.1 19-46 31.2-77.3 31.2-31.3 0-59.2-12.2-77.3-31.2-18.1 19-46 31.2-77.3 31.2-31.3 0-59.2-12.2-77.3-31.2-18.1 19-46 31.2-77.3 31.2-31.3 0-59.2-12.2-77.3-31.2-18.1 19-46 31.2-77.3 31.2-31.3 0-59.2-12.2-77.3-31.2-18.1 19-46 31.2-77.3 31.2-31.3 0-59.2-12.2-77.3-31.2-18.1 19-46 31.2-77.3 31.2-31.3 0-59.2-12.2-77.3-31.2-18.1 19-46 31.2-77.3 31.2-31.3 0-59.2-12.2-77.3-31.2-18.1 19-46 31.2-77.3 31.2-31.3 0-59.2-12.2-77.3-31.2-18.1 19-46 31.2-77.3 31.2-31.2 0-59.1-12.2-77.2-31.1v502h1700v-502.1z"/><path d="M3400 1318.2c-18.1 19-46 31.2-77.3 31.2-31.3 0-59.2-12.2-77.3-31.2-18.1 19-46 31.2-77.3 31.2-31.3 0-59.1-12.2-77.3-31.2-18.1 19-46 31.2-77.3 31.2-31.3 0-59.2-12.2-77.3-31.2-18.1 19-46 31.2-77.3 31.2-31.3 0-59.2-12.2-77.3-31.2-18.1 19-46 31.2-77.3 31.2-31.3 0-59.2-12.2-77.3-31.2-18.1 19-46 31.2-77.3 31.2-31.3 0-59.2-12.2-77.3-31.2-18.1 19-46 31.2-77.3 31.2-31.3 0-59.2-12.2-77.3-31.2-18.1 19-46 31.2-77.3 31.2-31.3 0-59.2-12.2-77.3-31.2-18.1 19-46 31.2-77.3 31.2s-59.2-12.2-77.3-31.2c-18.1 19-46 31.2-77.3 31.2s-59.2-12.2-77.3-31.2c-18.1 19-46 31.2-77.3 31.2-31.2 0-59.1-12.2-77.2-31.1v502h1700v-502.1z"/><path d="M5100 1318.2c-18.1 19-46 31.2-77.3 31.2-31.3 0-59.2-12.2-77.3-31.2-18.1 19-46 31.2-77.3 31.2-31.3 0-59.1-12.2-77.3-31.2-18.1 19-46 31.2-77.3 31.2-31.3 0-59.2-12.2-77.3-31.2-18.1 19-46 31.2-77.3 31.2-31.3 0-59.2-12.2-77.3-31.2-18.1 19-46 31.2-77.3 31.2-31.3 0-59.2-12.2-77.3-31.2-18.1 19-46 31.2-77.3 31.2-31.3 0-59.2-12.2-77.3-31.2-18.1 19-46 31.2-77.3 31.2-31.3 0-59.2-12.2-77.3-31.2-18.1 19-46 31.2-77.3 31.2-31.3 0-59.2-12.2-77.3-31.2-18.1 19-46 31.2-77.3 31.2s-59.2-12.2-77.3-31.2c-18.1 19-46 31.2-77.3 31.2-31.3 0-59.2-12.2-77.3-31.2-18.1 19-46 31.2-77.3 31.2-31.2 0-59.1-12.2-77.2-31.1v502h1700v-502.1z"/></g><path d="M1700 1604.8c-425 0-425 54-850 54s-425-54-850-54v731.9c425 0 425 54 850 54s425-54 850-54v-731.9zm1700 0c-425 0-425 54-850 54s-425-54-850-54v731.9c425 0 425 54 850 54s425-54 850-54v-731.9zm1700-4.5c-425 0-425 54-850 54s-425-54-850-54v731.9c425 0 425 54 850 54s425-54 850-54v-731.9z" fill="#6AC9CD"/><path fill="#4EC3C7" d="M2698.1 2329.8c327.6-5 327.1-39.8 654.7-44.7 327.6-5 328.1 29.9 655.7 24.9s327.1-39.8 654.7-44.7c44.9-.7 83.6-2 118-3.6-311.3-32.2-441 5.6-761.9 10.5-327.6 5-328.1-29.9-655.7-24.9s-327.1 39.8-654.7 44.7c-274.6 4.2-448.2-21.7-646 .2 173.4 4 382.9 41.4 635.2 37.6z"/><ellipse fill="#74941F" cx="764.8" cy="1361.9" rx="366.7" ry="192.4"/><g fill="#92B625"><path d="M954.8 1210.6s10.6-46.5 52.4-35.6c0 0-21.3-.1-24.8 18.3 0 0 24.3-19 42.8 2.6 0 0-17.4-11.2-37.4 8.5 0 0 22-7.5 28.8 6.2 0 0-14.7-4.4-17.7 8.2-2.4 9.9-44.1-8.2-44.1-8.2z"/><path d="M764.8 1169.4c-4.5 0-9 0-13.4.1 11.3 8.2 30.5 19.9 61.6 37.4 96.7 54.7 163.3 84.7 239.3 72 13.3-2.2 25.1-5.1 35.2-8.6-62-60-183.3-100.9-322.7-100.9z"/></g><path fill="#64801B" d="M764.8 1554.3c202.5 0 366.7-86.2 366.7-192.4 0-16.7-4.1-32.9-11.7-48.4-13.9 1.2-28.3 1.8-43 1.8-58.1 0-111.4-9.7-153-25.9-41.6 16.2-94.9 25.9-153 25.9-58.1 0-111.4-9.7-153-25.9-41.6 16.2-94.9 25.9-153 25.9-18.7 0-37-1-54.5-2.9-8 15.8-12.2 32.4-12.2 49.5 0 106.2 164.2 192.4 366.7 192.4z"/><path fill="#937963" d="M649 1000.9c0-47 11.3-48.4 12-92.5h-6.4c-3 37.3-13.2 40.8-14.7 85.1-1.7 48.4 10.3 48.8 8.7 97.3-1.7 48.4-22 49.5-15.3 97.5.6 4.1 1.3 7.9 2 11.5h14.5c-.3-1.3-.5-2.6-.7-3.9-8.3-47.7 11.9-49.5 11.9-98 0-48.6-12-48.6-12-97z"/><g fill="#74941F"><path d="M665.7 921.3c3.5 8.7 2.7 27.4-13 29.8-15.7 2.4-21.3 12.8-24 22.9-2.7 10.1-17 17.3-19.4-1.3-2.4-18.6 1.6-30.1 13.3-35.4 11.7-5.3 13.8-21 3.2-24.2-10.7-3.2-17.6 1.3-16.2 9.9s-.5 23.2-12.5 25.3c-12 2.1-27.2-3.7-25.8-24.2 1.3-20.5 21-32.8 33.3-35.2 12.3-2.4 26.4-1.9 35.7 4 9.3 5.9 17.8 3.7 15.4-12.8-2.4-16.5-8-62.6 14.1-70.6 22.1-8 29.6 6.7 29.6 17.8 0 11.2-5.1 19.2-16.5 19.4-11.5.3-11.5 10.4-11.5 15.2 0 4.8-3.2 16 3.7 20s14.4 6.4 21.6-4.8c7.2-11.2 17.8-29.8 34.6-25 16.8 4.8 36.5 25 26.4 42.9-10.1 17.8-21.6 11.7-29.6 2.1s-21-7.7-24.2-2.7c-3.2 5.1-2.4 12.8 8.8 14.9 11.2 2.1 16.2 16.5 6.1 19.4-10.1 2.9-11.2-2.7-16.5-8-5.3-5.3-11.2-1.9-8.8 5.1s17.3 28.8 16.5 43.1c-.8 14.4-13 28.5-21.6 20.5-8.5-8-17.6-16.8-12.5-38.1 5.1-21.3 3.5-32.8-4.5-41.8-8.1-9-11.3-2-5.7 11.8z"/><path d="M627.1 833.2c7 7.7 17.6 26.9 14.6 34.1-2.9 7.2-6.1 4.5-25-3.2s-38.6-20.5-35.4-35.7c3.2-15.2 30.1-12.6 45.8 4.8z"/></g><path d="M731.2 852.1c-9.7-2.8-17.4 2.3-23.5 9.2 9.6-2.6 20.7-.5 29.3 7 13.3 11.7 11.8 21.7 9.4 37.5 3.8-1.2 7.6-4.5 11.2-10.9 10.1-17.8-9.6-38-26.4-42.8zm-25.7 98.3c-2.3 15.8-16.5 24.8-26.1 29.2 2.6 3.8 5.8 6.9 9 9.9 8.5 8 20.8-6.1 21.6-20.5.2-5.5-1.8-12.1-4.5-18.6zm-12.3-107.2c4.1-3.4 6-9 6-15.9 0-11.2-7.5-25.8-29.6-17.8-4.7 1.7-8.1 5.1-10.6 9.6 21.9-3.1 30.7 11.7 34.2 24.1z" fill="#92B625"/><path fill="#64801B" d="M606.8 1189.4s-13.7 13-5.1 21.5c8.5 8.6 5.1 36.9 16.6 29.2s20.3 19.1 31.5 6.3c11.1-12.8 20.1 9 26.4-5.9 6.3-14.8 15.9 14 21.9-5.9 5.9-19.9 15.3 2.4 21.2-13 5.9-15.4 17.8-5.9 21-15.6 3.2-9.7 17.3-1.4 18.4-10.9 1.1-9.4 14.1-2.8 10.9-13.8-3.2-11-54.3-6.6-55.8-6.3-1.6.5-107 14.4-107 14.4z"/><path fill="#74941F" d="M615.3 1188.5s-15.8-10.3-8.9-20.3-1.6-37.2 11.1-31.7c12.7 5.5 16.6-22.4 29.8-11.9 13.2 10.6 18.1-12.4 27 1 8.9 13.5 13.2-16.6 22.6 1.9 9.4 18.5 14.7-5.1 23.2 9 8.6 14.1 18.6 2.6 23.5 11.6 4.9 9 17.3-1.7 20.1 7.4 2.8 9.1 14.4.3 13.2 11.6-1.2 11.4-52.2 16.2-53.8 16.2-1.6 0-107.8 5.2-107.8 5.2z"/><path fill="#009CB3" d="M1094 1334.9c-11.8 12.4-30 20.4-50.4 20.4s-38.6-8-50.4-20.4c-11.8 12.4-30 20.4-50.4 20.4s-38.6-8-50.4-20.4c-11.8 12.4-30 20.4-50.4 20.4s-38.6-8-50.4-20.4c-11.8 12.4-30 20.4-50.4 20.4s-38.6-8-50.4-20.4c-11.8 12.4-30 20.4-50.4 20.4s-38.6-8-50.4-20.4c-11.8 12.4-30 20.4-50.4 20.4s-38.6-8-50.4-20.4c-11.8 12.4-30 20.4-50.4 20.4-19.7 0-36.3-6.6-39.5-11.2-2.1 8.9-2 17.7-2 27.5 0 14.8 11.3 41.6 11.3 48.8 0 20.9 44 68.9 59.7 115.9 15.7 47 37.8 78.3 61.3 114.8s80.9 82.2 103.1 108.3c22.2 26.1 95.3 37.8 125.3 39.1 30 1.3 78.3 74.4 104.4 60 26.1-14.4 78.3-74.4 108.3-120.1 30-45.7 48.3-108.3 94-148.8 45.7-40.5 10.4-48.3 33.9-92.7 17.9-33.8 38.9-102.3 35.4-142.7-14.4-2.8-31.3-10.1-40-19.3z"/><path fill="#008EA3" d="m817 1757-86-38-56-98s-17.1-35.4-37.5-78.8L597 1520l-68 16-45.5 9.8-2.7 22.9c14 30.4 30.9 54.9 48.5 82.3 23.5 36.5 80.9 82.2 103.1 108.3 22.2 26.1 95.3 37.8 125.3 39.1 24.7 1.1 61.7 50.6 88.6 60.3L817 1757z"/><path fill="#74941F" d="M3764 1153c-192.4-3.9-241.9-222-417-222-167.9 0-304 201.5-304 450s152.1 376 320 376c119.2 0 206.3-27.5 256.1-175.2 46.2 4.7 94.8 7.2 144.9 7.2 312 0 565-97.6 565-218s-253-211.7-565-218z"/><path fill="#64801B" d="M3363 1757c119.2 0 206.3-27.5 256.1-175.2 46.2 4.7 94.8 7.2 144.9 7.2 312 0 565-97.6 565-218 0-29.4-15.1-57.1-42.5-82.3-17.8 2-36.5 3.1-55.6 3.1-58.1 0-111.4-9.7-153-25.9-41.6 16.2-94.9 25.9-153 25.9s-111.4-9.7-153-25.9c-41.6 16.2-94.9 25.9-153 25.9-58.1 0-111.4-9.7-153-25.9-41.6 16.2-94.9 25.9-153 25.9s-111.4-9.7-153-25.9c-31.2 12.1-69.1 20.7-110.6 24.1-4.1 29.4-6.2 59.8-6.2 91-.1 248.5 152 376 319.9 376z"/><path fill="#92B625" d="M3347 931c-103.2 0-194.4 76.2-249.4 192.6 25.6-9.5 55-16.4 83.4-18.6 51-4 106-177 254-108 44.4 20.7 84.5 36.4 117 46.4-59.4-56-115.9-112.4-205-112.4z"/><path d="M4181.5 1287.7c-.4 1.8-1 3.7-1.8 5.5-7.4 17.5-27.7 25.8-45.2 18.3-11.6-4.9-19.1-15.4-20.7-27-6.5 6.6-16.6 9-25.7 5.2-11.6-4.9-17.2-18.2-12.6-29.9-3.6.6-7.3.3-10.9-1.2-6.5-2.8-10.7-8.6-11.7-15.2-3.6.8-7.4.5-11.1-1-9.3-3.9-13.6-14.6-9.7-23.9 3.9-9.3 14.6-13.6 23.9-9.7.7.3 1.3.6 1.9 1 16.5 3.3 60.5 11.9 99.8 17.2 4.4-.6 9-.1 13.3 1.8 5.6 2.4 10 6.6 12.6 11.6 1.1.3 2.2.7 3.3 1.1 12.3 5.2 18.1 19.5 12.9 31.8-3.2 7.9-10.4 13.1-18.3 14.4zm-418-43.2-30.7-39.2-30.8-39.1 5.5-3.8 5.5-3.7 25.2 42.9zm35.5.5-30.7-39.2-30.8-39.1 5.5-3.8 5.5-3.7 25.2 42.9zm86.5 9-30.7-39.2-30.8-39.1 5.5-3.8 5.5-3.7 25.2 42.9zm125 16-30.7-39.2-30.8-39.1 5.5-3.8 5.5-3.7 25.2 42.9z" fill="#64801B"/><path fill="#74941F" d="M4182.5 1180.7c.3-1.9.5-3.8.5-5.7 0-19.1-15.4-34.5-34.5-34.5-12.6 0-23.6 6.7-29.6 16.8-3.4-8.6-11.8-14.8-21.7-14.8-12.6 0-22.9 10.1-23.2 22.6-3-2-6.6-3.1-10.5-3.1-7.1 0-13.2 3.8-16.7 9.4-3-2.1-6.6-3.4-10.6-3.4-10.1 0-18.3 8.2-18.3 18.3s8.2 18.3 18.3 18.3c.7 0 1.4-.1 2.1-.1 16.5 3.4 60.3 12.7 98.6 23.1 3.8 2.2 8.2 3.5 13 3.5 6.1 0 11.7-2.2 16.1-5.7 1.1.2 2.3.2 3.5.2 13.4 0 24.3-10.9 24.3-24.3 0-8.7-4.5-16.3-11.3-20.6z"/><path fill="#937963" d="m3710 1068.3 3.3 49.6 3.3 49.7h-13.2l3.3-49.7zm33.5 0 3.3 49.6 3.3 49.7h-13.2l3.3-49.7z"/><ellipse fill="#74941F" cx="3728.2" cy="1088.7" rx="68.5" ry="43.3"/><path fill="#92B625" d="M3730.2 1055.8c32.2 0 59.1 14 66.5 32.9v-.1c0-23.9-30.7-43.3-68.5-43.3s-68.5 19.4-68.5 43.3c0 3.6.7 7.1 2 10.4 0-23.8 30.7-43.2 68.5-43.2z"/><path fill="#937963" d="m3957 1056.3 4.1 67.6 4 67.7h-16.2l4-67.7z"/><ellipse fill="#74941F" cx="3957" cy="1043" rx="77.5" ry="79.5"/><path fill="#92B625" d="M3891.5 1058.5c0-43.9 34.7-79.5 77.5-79.5 21.1 0 40.3 8.7 54.3 22.8-13.6-22.9-38.2-38.3-66.3-38.3-42.8 0-77.5 35.6-77.5 79.5 0 22.2 8.9 42.3 23.2 56.7-7.1-12-11.2-26.1-11.2-41.2z"/><path fill="#937963" d="m3831 1041.8 4.1 67.6 4 67.7h-16.2l4-67.7z"/><path fill="#74941F" d="M3908.5 1040c0-28.4-14.5-53.3-36.4-67.4-9.9-22.4-24.7-36.6-41.1-36.6s-31.2 14.2-41.1 36.6c-21.8 14.1-36.4 39-36.4 67.4s14.5 53.3 36.4 67.4c9.9 22.4 24.7 36.6 41.1 36.6s31.2-14.2 41.1-36.6c21.9-14.1 36.4-39 36.4-67.4z"/><path fill="#92B625" d="M3792.4 983.1c11-22.7 27.4-37.1 45.6-37.1 8.5 0 16.6 3.1 23.9 8.7-8.8-11.8-19.4-18.7-30.9-18.7-16.5 0-31.2 14.2-41.1 36.6-20.7 13.3-34.8 36.4-36.2 63 4.6-22.1 18.9-40.9 38.7-52.5z"/><path fill="#009CB3" d="M4346.2 1357.9c-14-2.9-26.3-9.6-35-18.8-11.8 12.4-30 20.4-50.4 20.4s-38.6-8-50.4-20.4c-11.8 12.4-30 20.4-50.4 20.4s-38.6-8-50.4-20.4c-11.8 12.4-30 20.4-50.4 20.4s-38.6-8-50.4-20.4c-11.8 12.4-30 20.4-50.4 20.4s-38.6-8-50.4-20.4c-11.8 12.4-30 20.4-50.4 20.4s-38.6-8-50.4-20.4c-11.8 12.4-30 20.4-50.4 20.4-5.4 0-10.6-.6-15.5-1.6v-.2c-14-2.9-26.3-9.6-35-18.8-11.8 12.4-30 20.4-50.4 20.4s-38.6-8-50.4-20.4c-11.8 12.4-30 20.4-50.4 20.4s-38.6-8-50.4-20.4c-11.8 12.4-30 20.4-50.4 20.4s-38.6-8-50.4-20.4c-11.8 12.4-30 20.4-50.4 20.4s-38.6-8-50.4-20.4c-11.8 12.4-30 20.4-50.4 20.4s-38.6-8-50.4-20.4c-11.8 12.4-30 20.4-50.4 20.4s-38.6-8-50.4-20.4c-11.8 12.4-30 20.4-50.4 20.4-4.2 0-8.2-.3-12.2-1-5.5 22.6-11.8 51.3-11.8 63.2 0 3.5 2.5 11.3 6.9 22l11.6 70.5s45 120 61 139 35 48 56 62 47 56 65 62 63 27 93 25c5.6-.4 10.9-1.5 16.2-3.2 13.2 2.1 25.1 3.3 33.6 3.7 30 1.3 78.3 74.4 104.4 60 10.4-5.7 68.5-26.7 136-48.2 35.1 1.5 72.6 1.4 108.9-6.3 89-19 65 8 149 14s97 29 126 24c10.8-1.9 24.5-1.4 39.5-3.1 17.3 14.8 33.9 26.5 45.8 19.9 26.1-14.4 78.3-74.4 108.3-120.1 30-45.7 48.3-108.3 94-148.8 45.7-40.5 10.4-48.3 33.9-92.7 17.2-33.6 33.5-102.9 30-143.3z"/><path fill="#008EA3" d="M4057.5 1755.1c-3-45-15-13.5-48-39s-52.5-30-42-81 45-133.5 40.5-151.5-108 19.5-148.5 19.5-37.5 60-73.5 64.5-99 108-130.5 108-75 27-118.5 42-58.5-10.5-85.5-24-24-37.5-51-42-100.5-19.5-160.5-22.5-94.5 15-105 7.5c-6.2-4.4-34.8-25.5-58.2-42.4 11.2 26.4 22.6 51.1 29.1 58.8 16 19 35 48 56 62s47 56 65 62 63 27 93 25c5.6-.4 10.9-1.5 16.2-3.2 13.2 2.1 25.1 3.3 33.6 3.7 30 1.3 78.3 74.4 104.4 60 10.4-5.7 68.5-26.7 136-48.2 35.1 1.5 72.6 1.4 108.9-6.3 89-19 65 8 149 14s97 29 126 24c10.8-1.9 24.5-1.4 39.5-3.1 2.4 2.1 4.9 4.1 7.3 6 2.4-29.9 18.7-64.7 16.7-93.8z"/><circle fill="#4EC3C7" cx="2285" cy="2731" r="26"/><circle fill="#4EC3C7" cx="2122" cy="2682" r="29"/><circle fill="#4EC3C7" cx="2157" cy="2533" r="40"/><circle fill="#4EC3C7" cx="2275" cy="2373" r="30"/><circle fill="#4EC3C7" cx="2105.2" cy="2213.2" r="37.3"/><circle fill="#81D0D3" cx="3923" cy="2891" r="26"/><circle fill="#81D0D3" cx="3799" cy="2905" r="12"/><circle fill="#81D0D3" cx="3823" cy="2757" r="22"/><circle fill="#81D0D3" cx="3901" cy="2777" r="10"/><circle fill="#6AC9CD" cx="3892" cy="2550" r="17"/><circle fill="#81D0D3" cx="3562" cy="2632" r="17"/><circle fill="#81D0D3" cx="3127" cy="2863" r="14"/><circle fill="#81D0D3" cx="2973" cy="2641" r="20"/><circle fill="#81D0D3" cx="3240" cy="2668" r="19"/><circle fill="#81D0D3" cx="4730" cy="2852" r="25"/><circle fill="#81D0D3" cx="4533" cy="2725" r="16"/><circle fill="#6AC9CD" cx="4556" cy="2512" r="13"/><circle fill="#81D0D3" cx="4461" cy="2223" r="14"/><circle fill="#4EC3C7" cx="2201.4" cy="2054.3" r="15.7"/><circle fill="#81D0D3" cx="399.9" cy="2817.8" r="18.7"/><circle fill="#81D0D3" cx="463.7" cy="2700" r="13.5"/><circle fill="#81D0D3" cx="369.2" cy="2652" r="22.5"/><circle fill="#81D0D3" cx="732.2" cy="2302.5" r="21"/><circle fill="#81D0D3" cx="674.4" cy="2189.3" r="17.2"/><circle fill="#81D0D3" cx="855.2" cy="1969.6" r="27"/><circle fill="#81D0D3" cx="238" cy="1805.3" r="23.2"/><circle fill="#81D0D3" cx="280.7" cy="1953.1" r="19.5"/><circle fill="#81D0D3" cx="154.7" cy="2086.6" r="18"/><g fill="#009CB3"><path d="M4495.5 1803.1c-11.5 4.6-31.7 11.1-54.7 11.1s-43.2-6.5-54.7-11.1c-5.7-2.3-5.7-6.9 0-9.2 11.5-4.6 31.7-11.1 54.7-11.1s43.2 6.5 54.7 11.1c5.8 2.2 5.8 6.9 0 9.2z"/><path d="m4489.7 1793.8 8.2-4.7s3.7-2.1 8.2-4.7c4.5-2.6 8.2-.5 8.2 4.7v18.6c0 5.1-3.7 7.2-8.2 4.7l-8.2-4.7s-3.7-2.1-8.2-4.7c-4.6-2.5-4.6-6.6 0-9.2zm80 93.5c-11.5 4.6-31.7 11.1-54.7 11.1s-43.2-6.5-54.7-11.1c-5.7-2.3-5.7-6.9 0-9.2 11.5-4.6 31.7-11.1 54.7-11.1s43.2 6.5 54.7 11.1c5.7 2.3 5.7 6.9 0 9.2z"/><path d="m4563.8 1878.1 8.2-4.7s3.7-2.1 8.2-4.7c4.5-2.6 8.2-.5 8.2 4.7v18.6c0 5.1-3.7 7.2-8.2 4.7l-8.2-4.7s-3.7-2.1-8.2-4.7c-4.5-2.5-4.5-6.7 0-9.2zm140.7-104.8c-11.5 4.6-31.7 11.1-54.7 11.1-23 0-43.2-6.5-54.7-11.1-5.7-2.3-5.7-6.9 0-9.2 11.5-4.6 31.7-11.1 54.7-11.1 23 0 43.2 6.5 54.7 11.1 5.8 2.3 5.8 6.9 0 9.2z"/><path d="m4698.7 1764 8.2-4.7s3.7-2.1 8.2-4.7c4.5-2.6 8.2-.5 8.2 4.7v18.6c0 5.1-3.7 7.2-8.2 4.7l-8.2-4.7s-3.7-2.1-8.2-4.7c-4.6-2.4-4.6-6.6 0-9.2zm-83.5-74.9c-11.5 4.6-31.7 11.1-54.7 11.1-23 0-43.2-6.5-54.7-11.1-5.7-2.3-5.7-6.9 0-9.2 11.5-4.6 31.7-11.1 54.7-11.1 23 0 43.2 6.5 54.7 11.1 5.7 2.2 5.7 6.8 0 9.2z"/><path d="m4609.3 1679.8 8.2-4.7s3.7-2.1 8.2-4.7c4.5-2.6 8.2-.5 8.2 4.7v18.6c0 5.1-3.7 7.2-8.2 4.7l-8.2-4.7s-3.7-2.1-8.2-4.7c-4.5-2.5-4.5-6.6 0-9.2zm167.7 220.7c-11.5 4.6-31.7 11.1-54.7 11.1-23 0-43.2-6.5-54.7-11.1-5.7-2.3-5.7-6.9 0-9.2 11.5-4.6 31.7-11.1 54.7-11.1 23 0 43.2 6.5 54.7 11.1 5.7 2.3 5.7 6.9 0 9.2z"/><path d="m4771.1 1891.3 8.2-4.7s3.7-2.1 8.2-4.7c4.5-2.6 8.2-.5 8.2 4.7v18.6c0 5.1-3.7 7.2-8.2 4.7l-8.2-4.7s-3.7-2.1-8.2-4.7c-4.5-2.5-4.5-6.7 0-9.2zm-43 134.8c-11.5 4.6-31.7 11.1-54.7 11.1-23 0-43.2-6.5-54.7-11.1-5.7-2.3-5.7-6.9 0-9.2 11.5-4.6 31.7-11.1 54.7-11.1 23 0 43.2 6.5 54.7 11.1 5.8 2.3 5.8 6.9 0 9.2z"/><path d="m4722.2 2016.8 8.2-4.7s3.7-2.1 8.2-4.7c4.5-2.6 8.2-.5 8.2 4.7v18.6c0 5.1-3.7 7.2-8.2 4.7l-8.2-4.7s-3.7-2.1-8.2-4.7c-4.5-2.4-4.5-6.6 0-9.2zm154.2-180.7c-11.5 4.6-31.7 11.1-54.7 11.1-23 0-43.2-6.5-54.7-11.1-5.7-2.3-5.7-6.9 0-9.2 11.5-4.6 31.7-11.1 54.7-11.1 23 0 43.2 6.5 54.7 11.1 5.8 2.3 5.8 6.9 0 9.2z"/><path d="m4870.6 1826.8 8.2-4.7s3.7-2.1 8.2-4.7c4.5-2.6 8.2-.5 8.2 4.7v18.6c0 5.1-3.7 7.2-8.2 4.7l-8.2-4.7s-3.7-2.1-8.2-4.7c-4.6-2.4-4.6-6.6 0-9.2z"/></g><path d="M596.3 2130c-10-4-27.5-9.6-47.5-9.6-18.1 0-34.1 4.6-44.4 8.4l-5.1-2.9s-3.2-1.8-7.2-4c-3.9-2.2-7.1-.4-7.1 4v16.2c0 4.5 3.2 6.3 7.1 4l7.2-4s2.2-1.2 5.1-2.9c10.3 3.9 26.4 8.4 44.4 8.4 20 0 37.5-5.6 47.5-9.6 4.9-1.9 4.9-6 0-8zm-182.4-24.3c20 0 37.5-5.6 47.5-9.6 5-2 5-6 0-8-10-4-27.5-9.6-47.5-9.6-18.1 0-34.1 4.6-44.4 8.4l-5.1-2.9s-3.2-1.8-7.1-4c-3.9-2.2-7.1-.4-7.1 4v16.2c0 4.5 3.2 6.3 7.1 4l7.1-4s2.2-1.2 5.1-2.9c10.3 3.8 26.3 8.4 44.4 8.4zm78.9 106.9c-10-4-27.5-9.6-47.5-9.6-18.1 0-34.1 4.6-44.4 8.4l-5.1-2.9s-3.2-1.8-7.2-4c-3.9-2.2-7.1-.4-7.1 4v16.2c0 4.5 3.2 6.3 7.1 4l7.2-4s2.2-1.2 5.1-2.9c10.3 3.9 26.4 8.4 44.4 8.4 20 0 37.5-5.6 47.5-9.6 5-2 5-6 0-8zm-145.6-46.8c-10-4-27.5-9.6-47.5-9.6-18.1 0-34.1 4.6-44.4 8.4l-5.1-2.9s-3.2-1.8-7.2-4c-3.9-2.2-7.1-.4-7.1 4v16.2c0 4.5 3.2 6.3 7.1 4l7.2-4s2.2-1.2 5.1-2.9c10.3 3.9 26.4 8.4 44.4 8.4 20 0 37.5-5.6 47.5-9.6 5-2 5-6 0-8zm-111.5 54.6c-10-4-27.5-9.6-47.5-9.6-18.1 0-34.1 4.6-44.4 8.4l-5.1-2.9s-3.2-1.8-7.1-4c-3.9-2.2-7.1-.4-7.1 4v16.2c0 4.5 3.2 6.3 7.1 4l7.1-4s2.2-1.2 5.1-2.9c10.3 3.9 26.4 8.4 44.4 8.4 20 0 37.5-5.6 47.5-9.6 5-2 5-6 0-8z" fill="#36ADB3"/><g fill="#36ADB3"><path d="M3419.7 2185.5s43.8 34.7 97.8 34.7 85.5-34.7 85.5-34.7-31.4-34.7-85.5-34.7c-54 0-97.8 34.7-97.8 34.7z"/><path d="M3415.2 2185.5c0-17.8-7.8-33.7-20-44.4 23.9 5.5 41.4 23.3 41.4 44.4s-17.5 38.9-41.4 44.4c12.2-10.7 20-26.6 20-44.4zm144 100.5s43.8 34.7 97.8 34.7 85.5-34.7 85.5-34.7-31.4-34.7-85.5-34.7c-54 0-97.8 34.7-97.8 34.7z"/><path d="M3554.7 2286c0-17.8-7.8-33.7-20-44.4 23.9 5.5 41.4 23.3 41.4 44.4s-17.5 38.9-41.4 44.4c12.2-10.7 20-26.6 20-44.4z"/></g><g fill="#26ACBF"><path d="M920.4 2589.5s-43.8 34.7-97.8 34.7-85.5-34.7-85.5-34.7 31.4-34.7 85.5-34.7c54 0 97.8 34.7 97.8 34.7z"/><path d="M924.9 2589.5c0-17.8 7.8-33.7 20-44.4-23.9 5.5-41.4 23.3-41.4 44.4s17.5 38.9 41.4 44.4c-12.2-10.7-20-26.6-20-44.4zm109.7 107.5s-43.8 34.7-97.8 34.7-85.5-34.7-85.5-34.7 31.4-34.7 85.5-34.7c54 0 97.8 34.7 97.8 34.7z"/><path d="M1039.2 2697c0-17.8 7.8-33.7 20-44.4-23.9 5.5-41.4 23.3-41.4 44.4s17.5 38.9 41.4 44.4c-12.3-10.7-20-26.6-20-44.4zm-148.6 116s-43.8 34.7-97.8 34.7-85.5-34.7-85.5-34.7 31.4-34.7 85.5-34.7c54 0 97.8 34.7 97.8 34.7z"/><path d="M895.2 2813c0-17.8 7.8-33.7 20-44.4-23.9 5.5-41.4 23.3-41.4 44.4s17.5 38.9 41.4 44.4c-12.3-10.7-20-26.6-20-44.4z"/></g><path d="M1140.5 1607.6s-15.2 8.8-34 8.8-34-8.8-34-8.8 15.2-8.8 34-8.8 34 8.8 34 8.8zm67.5 79.5s-15.2 8.8-34 8.8-34-8.8-34-8.8 15.2-8.8 34-8.8 34 8.8 34 8.8zm19.5-82.5s-15.2 8.8-34 8.8-34-8.8-34-8.8 15.2-8.8 34-8.8 34 8.8 34 8.8zm-73.5 36s-15.2 8.8-34 8.8-34-8.8-34-8.8 15.2-8.8 34-8.8 34 8.8 34 8.8zm-119.8-52.4s-15.2 8.8-34 8.8-34-8.8-34-8.8 15.2-8.8 34-8.8c18.8-.1 34 8.8 34 8.8zm67.5-31.5s-15.2 8.8-34 8.8-34-8.8-34-8.8 15.2-8.8 34-8.8c18.7-.1 34 8.8 34 8.8zm-64.5 121.5s-15.2 8.8-34 8.8-34-8.8-34-8.8 15.2-8.8 34-8.8c18.8-.1 34 8.8 34 8.8zm-93-69s-15.2 8.8-34 8.8-34-8.8-34-8.8 15.2-8.8 34-8.8c18.8-.1 34 8.8 34 8.8z" fill="#B8E4E6"/><path fill="#6AC9CD" d="M3509.2 1711.4s-10.4 6-23.3 6-23.3-6-23.3-6 10.4-6 23.3-6c12.9-.1 23.3 6 23.3 6zm-59.1-32s-10.4 6-23.3 6-23.3-6-23.3-6 10.4-6 23.3-6 23.3 6 23.3 6zm119.2-51.9s-10.4 6-23.3 6-23.3-6-23.3-6 10.4-6 23.3-6 23.3 6 23.3 6zm117 117.2s-10.4 6-23.3 6-23.3-6-23.3-6 10.4-6 23.3-6c12.8 0 23.3 6 23.3 6zm-59.8 8.4s-10.4 6-23.3 6-23.3-6-23.3-6 10.4-6 23.3-6 23.3 6 23.3 6zm-29.2-38.1s-10.4 6-23.3 6-23.3-6-23.3-6 10.4-6 23.3-6 23.3 6 23.3 6zm-199.9 50.7s-10.4 6-23.3 6-23.3-6-23.3-6 10.4-6 23.3-6c12.9-.1 23.3 6 23.3 6zm146.7-87.4s-10.4 6-23.3 6-23.3-6-23.3-6 10.4-6 23.3-6 23.3 6 23.3 6zm-42.2-27.8s-10.4 6-23.3 6-23.3-6-23.3-6 10.4-6 23.3-6c12.9-.1 23.3 6 23.3 6zm14.9 104.7s-10.4 6-23.3 6-23.3-6-23.3-6 10.4-6 23.3-6c12.8-.1 23.3 6 23.3 6zm-74-23.7s-10.4 6-23.3 6-23.3-6-23.3-6 10.4-6 23.3-6c12.9-.1 23.3 6 23.3 6zm122.3 53.1s-10.4 6-23.3 6-23.3-6-23.3-6 10.4-6 23.3-6 23.3 6 23.3 6z"/><path fill="#4EC3C7" d="M3659.7 2760.2c-3-1-6.2-2.2-9.7-3.5-3.5-1.3-7.3-2.7-11.3-4-4-1.3-8.4-2.6-13-3.6s-9.5-1.8-14.6-2.1c-2.5-.2-5.1-.2-7.6-.2-2.5.1-4.9.2-7.2.4-4.7.4-9.2 1-13.4 1.8-2.4.4-4.8.9-7 1.4-19.6-2.4-45.5-3.8-74-3.8-60.9 0-110.2 6.6-110.2 14.7s49.3 14.7 110.2 14.7c18 0 34.9-.6 49.9-1.6.9.5 1.7 1 2.6 1.5 5.1 2.9 10.9 6.2 17.3 9.2 6.4 3 12.9 5.3 19.1 6.7 6.2 1.3 12 1.6 16.8 1.3 4.8-.4 8.5-1.3 11-2.1s3.8-1.4 3.8-1.4-1.4.1-4 .1-6.3-.1-10.7-.7c-4.4-.6-9.5-1.8-14.9-3.7-5.4-1.9-11.2-4.5-17.4-7.3-3.4-1.6-6.8-3.2-10.1-4.7 6-.6 11.5-1.2 16.5-1.9l2.2 1.2 2.4 1.3c.8.4 1.7.9 2.6 1.3 3.6 1.8 7.5 3.3 11.6 4.4 4.1 1.1 8.2 1.8 12.1 2.3 3.9.4 7.7.6 11.3.6 7.2-.1 13.6-.8 18.9-1.5 5.3-.7 9.5-1.5 12.5-2.1 2.9-.6 4.5-.9 4.5-.9s-1.7-.1-4.6-.3c-3-.2-7.3-.4-12.6-.7-5.3-.3-11.5-.6-18.3-1.3-6.8-.7-14.1-1.7-21.4-3.8-2.9-.8-5.7-1.7-8.4-2.8 3.3-.7 6.2-1.4 8.7-2.2 3.5.1 6.7.1 9.5 0 7-.3 11.3-1.4 11.3-1.3 0 0-4.3-1-10.9-2.6-.5-.1-1.1-.3-1.6-.4.3-.5.5-.9.5-1.4 0-2.4-4.1-4.6-11.5-6.5h3.1c2.3 0 4.6.1 6.9.2 9.3.6 18.1 2.4 26.2 4.2l11.6 2.7c3.7.8 7.1 1.6 10.3 2.2 6.4 1.2 11.6 1.7 15.2 1.9 3.6.2 5.6.1 5.6.1-.1 0-7.9-1.6-19.8-5.8z"/><path fill="#4BBBBF" d="M2951.6 1770.9c-24.5 11.6-35.2 40.2-24 64 6.2 13.1 12.8 11.6 21.7 5.8.9 2 1.2 4.1 3.6 3.3.9-.3 1.5-.8 1.9-1.3.1.9.2 1.8.4 2.7.6 4.5 1.6 9 3 12.9 1.3 4 3 7.4 4.7 10.1 1.6 2.7 3.2 4.7 4.3 5.9 1.1 1.3 1.8 1.9 1.8 1.9s-.4-.9-1.1-2.4c-.7-1.6-1.7-3.8-2.6-6.6-1-2.8-1.9-6.1-2.6-9.7-.8-3.7-1.3-7.7-2-12.1-.3-2.3-.7-4.5-1-6.7 2.1-.1 3.3-1 4.3-1.8.1.3.2.7.3 1 1 3.2 2 6.7 3.2 10.2 1.2 3.6 2.5 7.3 4.1 11.1 3.1 7.4 6.7 14.3 10.4 20.3s7.6 10.9 11.1 14.7c3.5 3.8 6.6 6.5 8.7 8.2 2.1 1.8 3.4 2.6 3.4 2.6s-1.1-1.2-2.9-3.3c-1.8-2.2-4.4-5.3-7.4-9.5-2.9-4.1-6.1-9.2-9.3-15.1-3.1-5.9-6.2-12.6-9.3-19.8-1.5-3.5-2.9-7-4.2-10.5-1.3-3.4-2.5-6.8-3.8-10-.3-.7-.5-1.3-.8-2 .2 0 .5-.1.7-.1 1.2-.1 2-.2 2.5-.4.7 1.7 1.5 3.5 2.3 5.3 3.5 7.9 7.1 15.3 10.6 22 3.5 6.6 7 12.5 10.1 17.2 3.1 4.8 5.7 8.5 7.6 11 1.9 2.5 3 3.8 3 3.9l-2.3-4.3c-1.5-2.8-3.6-6.8-6-11.9-2.5-5-5.3-11.1-8.4-17.8-3-6.7-6.3-14.2-9.7-22-.7-1.6-1.4-3.2-2.1-4.7 2.4-.5 1.3-2.8 5.1-4.1 1.3 3.6 2.6 7.2 4 11 3.5 9.7 7.1 18.9 10.7 27.2 3.6 8.3 7.3 15.6 10.6 21.6 3.4 6 6.4 10.6 8.6 13.6 2.2 3.1 3.5 4.7 3.5 4.7s-1-1.8-2.8-5.2c-1.8-3.3-4.2-8.2-7-14.4-2.7-6.1-5.7-13.5-8.8-21.8-3.1-8.3-6.3-17.5-9.9-27.2-1.4-3.9-2.9-7.7-4.3-11.4 1.2-.9 2.1-2 3.4-2.8 2.1 5.3 4.2 11.2 6.2 17.4 2.5 7.5 4.9 14.7 7.4 21.2s5.2 12.3 7.7 17c2.5 4.7 4.8 8.3 6.5 10.7 1.7 2.4 2.7 3.6 2.7 3.7 0 0-.8-1.5-2-4.1-1.3-2.6-3-6.5-4.8-11.3-1.9-4.8-3.8-10.6-5.8-17.1-2-6.5-4.1-13.7-6.6-21.3-1.3-3.8-2.6-7.5-4.1-11.1-.9-2.2-1.8-4.3-2.8-6.4.2 0 .5 0 .7-.1 1.6-.1 2.8-.3 3.8-.7 1 1.7 2 3.5 3.1 5.2 2 3.3 4 6.5 6 9.6 1.9 3 3.7 5.9 5.2 8.8 1.6 2.8 2.9 5.6 3.9 8.2 1.1 2.6 1.9 5.2 2.4 7.5 1.1 4.7 1.3 8.7 1.4 11.5 0 2.8-.2 4.3-.1 4.3 0 0 .5-1.4 1.1-4.1.3-1.3.6-3 .7-5 .2-2 .2-4.3 0-6.9-.2-2.6-.7-5.4-1.5-8.4s-1.9-6.1-3.3-9.3c-1.4-3.2-3.1-6.4-4.9-9.6-1.8-3.2-3.7-6.4-5.7-9.7-1-1.6-2-3.2-2.9-4.8.2 0 .5 0 .7.1 2 .6.8-.6 2.4-1.5.4.6.7 1.2 1.1 1.8 2.1 3.3 4.2 6.2 6.2 8.8 1.9 2.6 3.7 5 5.1 7 2.9 4.1 4.6 6.8 4.6 6.8s-.1-.8-.5-2.2c-.4-1.4-.9-3.4-1.9-5.9-.9-2.5-2.2-5.3-3.8-8.3-1.6-3-3.5-6.2-5.6-9.4 0-.1-.1-.1-.1-.2.5-.3.8-.8 1.3-1.7.3-.6.2-1.6-.3-2.9 6.5-3.1 9-7.9 4-18.4-11.4-24.2-40.3-34.1-64.8-22.5z"/><path fill="#26ACBF" d="M1563.8 2642.1c-39.2-17.1-84.4-.2-101 37.8-9.1 20.9-.5 27.4 15.6 31.8-1.5 3.1-3.6 5.7-.2 7.6 3.1 1.7 5.1.5 7.1.1-.7 2.4-1.3 4.9-2 7.4-2.5 9.7-4.8 18.7-7.2 26.8-2.4 8.1-4.9 15.3-7.4 21.3s-4.9 10.8-6.6 14.1c-1.7 3.3-2.7 5.1-2.7 5.1s1.6-1.3 4.4-3.9c2.7-2.6 6.6-6.5 10.7-12 4.1-5.4 8.5-12.4 12.2-20.7 3.8-8.2 7-17.6 9.6-27.4.5-1.8.9-3.5 1.3-5.2 1.8.3 3.5.4 5.2 1.4-.5 1.8-1 3.7-1.4 5.6-2 8.6-3.2 16.7-4.2 24.1l-2.6 19.6c-1.5 11.2-3 18.2-2.9 18.2 0 0 1.1-1.4 2.9-4.2 1.7-2.8 4.1-6.9 6.5-12.2 2.4-5.3 4.9-11.8 7.2-19 2.3-7.3 4.4-15.3 6.3-23.6v-.2c3.6 3.1 5.1-1.8 11.8 2.9-.4 1.1-.7 2.2-1.1 3.3-2.7 8.2-6.2 20.8-8.1 35.6-1.2 9.4-1.2 15.4-1.2 15.4s3.2-5.1 7.6-13.4c4.4-8.3 10-19.9 14.4-33.5.4-1.2.8-2.4 1.1-3.6 2.1.6 4.4 1.8 7.1 4.6 1.6 1.6 3 2.8 4.3 3.6-2.6 4.2-5.5 8.6-8.3 13.2-4.1 6.7-7.7 13.3-10.7 19.7-3 6.3-5.3 12.3-6.8 17.4-1.6 5.1-2.4 9.4-2.9 12.3-.5 3-.6 4.6-.6 4.6s3.5-5.6 9.5-14c3-4.2 6.6-9.1 10.6-14.6s8.3-11.6 12.5-18.5c2.9-4.8 5.5-9.6 7.7-14.4.9.3 1.8-1.6 5.5 1.1 4.9 3.6 4.9 3.6 8.4 3 1-.2 2.2-1.4 3.2-3.3 10.4 4.5 18.7 2.5 26-14.4 16.7-37.6-1.6-82.4-40.8-99.5z"/><g fill="#4EC3C7"><path d="M1755.6 2083.6v-21c0-14.9 6.3-28.1 16-36.3h-1.5c-13 0-21.9 23.2-43.8 36.9-15.9-10.2-44.2-25.3-77.9-31 9-8.4 20.9-14.3 34.2-16.4-1.1 0-2.1-.1-3.2-.1-16.4 0-31.3 5.7-42.5 14.9-4.9-.5-9.8-.8-14.8-.8-65.3 0-86.8 43.1-86.8 43.1s21.4 43.1 86.8 43.1c5 0 10-.3 14.8-.8 11.2 9.3 26.1 14.9 42.5 14.9 3.7 0 7.4-.3 11-.9-15.7-.7-29.8-6.6-40.4-15.9 32.9-5.9 60.5-20.6 76.2-30.6 21.8 13.7 31.1 36.8 44 36.8h1.5c-9.7-7.8-16.1-21-16.1-35.9zm51.6 119.2v-12.7c0-9 4.3-17 10.8-21.9h-1c-8.7 0-14.7 14-29.6 22.3-10.8-6.1-29.8-15.3-52.5-18.7 6.1-5.1 14.1-8.6 23-9.9h-2.2c-11 0-21.1 3.4-28.7 9-3.3-.3-6.6-.5-10-.5-44.1 0-58.5 26.1-58.5 26.1s14.4 26.1 58.5 26.1c3.4 0 6.7-.2 10-.5 7.6 5.6 17.6 9 28.7 9 2.5 0 5-.2 7.4-.5-10.6-.4-20.1-4-27.3-9.6 22.2-3.5 40.8-12.5 51.4-18.5 14.7 8.3 20.9 22.3 29.7 22.3h1c-6.4-5-10.7-13-10.7-22z"/><path d="M1589.5 2177.7v-34.4c0-24.4 10.3-45.9 26.2-59.3h-2.5c-21.2 0-35.7 38-71.7 60.4-26.1-16.6-72.2-41.3-127.3-50.6 14.8-13.7 34.1-23.4 55.8-26.8-1.7-.1-3.5-.1-5.3-.1-26.8 0-51.1 9.3-69.5 24.4-7.9-.8-16-1.2-24.2-1.2-106.8 0-141.8 70.5-141.8 70.5s35 70.5 141.8 70.5c8.2 0 16.3-.5 24.2-1.2 18.3 15.2 42.7 24.4 69.5 24.4 6.1 0 12.1-.5 17.9-1.4-25.6-1.2-48.7-10.8-66.1-25.9 53.8-9.6 98.9-33.7 124.6-50.1 35.7 22.5 50.8 60.2 71.9 60.2h2.5c-15.7-13.5-26-35.1-26-59.4z"/></g><path fill="#009CB3" d="M2127.9 2920.1c-4.1-1.8-9.7-3.9-16-4.9-.5-.1-1-.1-1.5-.2 4.4-1.8 8.1-4.4 10.7-6.8 2.9-2.5 4.3-4.7 4.3-4.7s-2.5-.3-6.3-.3c-1.4 0-3 .1-4.7.2 1.7-2.2 2.7-3.9 2.7-3.9s-1.8-.6-4.5-.9c2.6-2.4 4.7-5 6.3-7.1 2.2-3 3.5-5.2 3.5-5.2s-2.6-.1-6.4.8c-1 .2-2 .5-3.1.8 5-9.1 5.8-18.2 5.8-18.2s-9.8 5-16.3 15.1c-.3.5-.6 1-1 1.6-.7.3-1.8.8-3.1 1.5-1.7 1-3.6 2.5-5 4.5.7-2.3 1.2-5.1 1.2-8-.1-8.6-5.4-15.7-5.4-15.7s-5.4 7-5.2 15.9c0 2.5.5 4.9 1.2 7l-.6.3c-.2-.9-.5-1.7-.8-2.6-1.9-5.8-5-10.5-7.6-13.8-2.6-3.3-4.7-5.1-4.7-5.1s-.4 2.7-.4 6.9c.1 3.3.4 7.3 1.5 11.7l-.9-.3c-2.4-.8-4.2-1-4.2-1s-.2 1.8.1 4.3c.3 2.5 1.1 5.6 3.2 8.1.7.8 1.5 1.5 2.3 2.1v.1c-.4-.3-.7-.6-1.2-.8-1.8-2.2-4-4.4-6.8-6.3-2.3-1.6-4.9-2.8-7.3-3.7-2.4-.8-4.8-1.2-6.8-1.4-4-.3-6.5.5-6.5.5l4.4 4.4c1.3 1.3 2.8 2.7 4.5 4.3 1.7 1.5 3.5 3.1 5.7 4.6.8.6 1.7 1.1 2.5 1.6.2.5.4 1 .6 1.4h-.1c-5.9-1.7-11.7-1.3-15.7-.5-4.1.9-6.5 2.1-6.5 2.1s2.3 1.4 5.8 3.2l2.4 1.2c-1.3.6-2 1-2 1s1.9 1.4 5.1 3c2.7 1.3 6.1 2.8 10 3.6-.4.1-.7.2-1.1.4-5.3 1.9-9.7 4.8-12.8 7.2-3.1 2.4-4.9 4.4-4.9 4.4s2.6.5 6.6.6c4 .1 9.3-.3 14.7-2.3 3.9-1.4 7.2-3.4 9.9-5.4-.6 2.1-.6 3.7-.6 3.7s1.7.4 3.9.3c2.2 0 4.8-.3 6.8-1.7 1.7-1.1 2.8-2.8 3.6-4.5.3.4.6.9.9 1.3 1.2 1.7 2.8 3.3 4.7 4.6 3.8 2.6 7.9 3.5 11 3.8 3.1.3 5.3.1 5.3.1s-.8-2-2.6-4.6c-.9-1.4-2.1-2.9-3.5-4.4 2.1.7 4.4 1.2 6.8 1.6 6.5 1 12.6.5 17-.4 4.4-.8 7.2-1.9 7.2-1.9.5.2-2-1.4-6.1-3.2zm393-68.3c-9.5 3.9-22.2 10.2-34.8 19.5-7.9 5.9-14.8 12.1-20.4 18-.2-1.8-.5-3.5-1-4.8-.4-1.2-.9-2.2-1.3-3 .9-2.8 1.8-5.7 2.7-8.7 3.3-11.7 5.9-24.7 8.3-38.1 2.4-13.5 4.7-26.2 7.6-37.4 1.4-5.6 3-10.9 4.8-15.7 1.8-4.8 3.7-9.2 5.7-13.1 4-7.8 8.3-13.6 11.6-17.4 3.3-3.8 5.4-5.7 5.4-5.7s-2.5 1.3-6.6 4.4c-2 1.6-4.4 3.6-7 6.2-2.6 2.6-5.4 5.8-8.1 9.5-2.7 3.8-5.4 8.1-7.9 13s-4.8 10.3-6.8 16c-4.1 11.5-7.1 24.6-9.5 38.2-.4 2.2-.8 4.3-1.1 6.5 0-1 .1-1.9.1-2.9.2-8.3-.4-15.9-1.5-22.1-1.1-6.2-2.6-11.1-3.8-14.4-1.2-3.3-2.1-5-2.1-5s.2 1.9.4 5.3.3 8.4-.1 14.4c-.3 6-1.1 13.1-2.3 20.9-1 6.6-2.4 13.8-3.8 21.3 0-1.1.1-2.1.1-3.2.2-11.2-.9-23.5-3.2-36-2.3-12.6-5.4-24.2-8.5-34.7-3.1-10.5-6.1-19.8-8.6-27.6-5-15.7-7.8-25.5-7.9-25.5 0 0 0 2.6.3 7.2s.9 11.3 2.1 19.6c1.2 8.2 2.9 17.9 5 28.6 2.1 10.7 4.5 22.3 6.7 34.5s3.9 23.7 4.7 34.3l.3 5.1c-1.6-4.4-3.4-8.5-5.2-12.2-2.8-5.7-5.4-10.6-7.7-14.8-4.5-8.3-7.2-13.6-7.2-13.6s0 1.5.3 4.2c.2 2.7.8 6.6 1.8 11.3 1 4.7 2.4 10.3 4.2 16.3 1.6 5.6 3.5 11.6 5.3 17.8-1.4-.8-2.6-1.5-3.7-2.1-.1-.3-.1-.6-.2-1-1.2-5.8-2.6-11.9-4.2-18.2-.8-3.2-1.7-6.4-2.7-9.7l-.8-2.5-.4-1.2-.4-1.2c-.6-1.6-1.1-3.2-1.7-4.8-4.7-13-9.7-25-14.2-35.8-4.5-10.9-8.6-20.7-11.7-29-6.4-16.6-9.4-27.4-9.5-27.4 0 0 .1 2.8.7 7.8.5 5 1.6 12.3 3.5 21.2 1.9 8.9 4.7 19.3 8.3 30.7 3.6 11.4 8 23.6 12.6 36.4l1.7 4.8.8 2.3.8 2.3c1 3.1 2 6.1 2.9 9.2l5.3 17.7c2.5 8.3 5.1 15.9 7.9 22.7l-1.1-1.1s0 .1-.1.2c-.5-.9-1-1.8-1.5-2.8-4.6-8.6-9.9-17.9-16.1-27.3-6.2-9.4-12.7-18.1-19-25.5-6.3-7.5-12.5-13.8-17.9-18.9-5.4-5.1-10-8.9-13.3-11.5-3.3-2.6-5.1-3.9-5.1-3.9l3.9 5.1c2.5 3.3 6.1 8 10.4 13.9 4.3 5.9 9.3 13 14.6 20.9 5.4 7.9 11.1 16.7 17.2 26s11.9 18.1 17.4 26.1c2.4 3.6 4.7 6.9 7 10.1.1 1.2.4 2.4.8 3.7-.9-.8-1.7-1.6-2.6-2.3-6.1-5.4-13-11.2-20.7-16.7-7.7-5.5-15.4-10.2-22.7-14.1-7.3-3.9-14.1-6.8-20-9-5.8-2.2-10.7-3.6-14.1-4.5-3.4-.9-5.3-1.2-5.3-1.2s6.6 4 16.8 10.7c5.1 3.4 11 7.5 17.6 12.1 6.5 4.6 13.6 9.8 21.2 15.1 11.2 8 21.7 15.3 30.7 21.2 9.5-7.4 23.1-12.3 38.5-13.1.2-.6.3-1.2.4-1.7 8-5.6 18.3-12.8 29.2-20.9 12.1-9 23-17.5 30.9-23.6 8-6.2 12.9-10.2 12.9-10.2-.3-.6-6.5.9-16 4.8zm-814.2 100.7c-.4 0-.7 0-1.1.1-5.3.4-9.4 1.5-12.1 2.5-2.7 1-4.1 1.8-4.1 1.8 0 .1 6.4.1 15.6 2.8 3.9 1.1 8.3 2.6 13.3 4.4.1.1.2.3.4.4 19.6-1.5 55-3.8 82.4-4 20.7-.1 38.9-6 54-12 .4-.6.9-1.1 1.4-1.7 2.9-3.9 5.9-9 8.4-14.8 2.5-5.8 4.7-12.3 6.4-19.1 1.7-6.8 3-13.1 4.2-18.8 1.2-5.7 2.5-10.8 3.8-15.1 2.6-8.6 5.3-13.9 5.2-14 0 0-1.3.8-3.4 2.4-2.1 1.7-5 4.3-8.1 8.2-3.1 3.8-6.2 8.8-8.9 14.6-2.7 5.8-4.9 12.3-6.6 19.2-.6 2.5-1.2 5-1.7 7.4-.1-.1-.2-.3-.2-.4-1.5-2.7-3.2-5-4.7-6.8-.2-.2-.3-.4-.5-.5 0-2.7-.1-5.4-.3-8.1-.8-9.4-3-17.9-4.9-25.4-2-7.5-3.8-14-5.1-19.7-2.6-11.2-2.6-18.7-2.7-18.7 0 0-.8 1.7-1.8 4.9s-2.1 8.1-2.6 14.2-.3 13.4.4 21.2c.7 7.8 1.8 16.2 2.6 24.6.8 6.7.8 13.1.4 19.1 0-.1 0-.2-.1-.3-1.3-5.5-3-10.4-4.8-14.8-1.8-4.4-3.5-8.3-5-11.6-3-6.6-4.8-10.9-4.9-11 0 0-.4 1.1-.9 3.2s-1 5.2-1.3 9c-.2 3.8-.2 8.3.3 13.2.5 4.9 1.4 10 2.6 15.2 1 4.5 2.2 8.7 3.3 12.5-1.5.6-3.2 1.2-4.9 1.8-.1-.7-.2-1.5-.4-2.1-.8-3.6-2-6.6-3.2-9.1-2.5-5-4.9-7.6-4.9-7.6s-1 3.5-2.1 8.5c-.4 1.7-.8 3.5-1.1 5.4-2.4-.9-4.3-1.6-5.1-1.9 4.1-13.7 7.4-26.4 9.9-35.7 2.6-9.5 4.5-15.5 4.5-15.5s-1.2 1-3.2 3.1-4.7 5.2-7.7 9.4c-5.2 7.2-11.2 17.5-15.6 29.9 0-1.1-.1-2.2-.1-3.4-.3-8.1-1-15.7-1.8-22.6-.8-6.9-1.6-13.1-2.3-18.3l-2.2-17.2s-2.7 6.2-4.9 16.9c-1.1 5.3-2.1 11.7-2.6 18.8-.5 7.1-.7 14.9-.4 22.9.3 8.1 1 15.6 1.7 22.5l.3 2.5.2 2.5c0 .5.1 1 .1 1.4-.5-2-.9-4.1-1.4-6.2-1.8-8-3.6-16.8-5.5-26-2-9.3-4-18.1-6-26.2-2-8.1-4.1-15.4-6-21.5-3.8-12.2-7-19.6-7-19.6s-.2 8 0 20.7c.1 6.4.4 13.9 1.1 22.3.7 8.4 1.9 17.6 3.9 27.2 2 9.6 4.8 18.6 8 26.6.5 1.3 1 2.5 1.6 3.8-.7.1-1.4.1-2.1.2-2.7-3.6-5.4-7.5-8-11.4-10.2-15.1-18.6-29.7-24.6-40.6-3-5.4-5.3-10-7-13.1l-2.6-4.9s.1 2 .5 5.5 1.1 8.7 2.5 14.9c1.4 6.2 3.4 13.6 6.6 21.5 3.1 7.9 7.3 16.4 12.9 24.6 1.1 1.7 2.3 3.3 3.5 4.9l-5.1.4c-2.2-2.7-4.5-5.5-7-8.1-.9-3.8-2.2-7.9-3.8-12.1-2.5-6.7-5.9-13.8-10.1-20.8-4.1-7-8.6-13.3-12.8-18.8-4.2-5.5-8.2-10.3-11.6-14.4-6.8-8-11.3-13.1-11.3-13 0 0 1.3 6.6 5.2 16.7 1.9 5 4.5 10.8 7.6 17.1 3.1 6.3 6.8 12.9 10.8 19.7 1.3 2.2 2.5 4.2 3.8 6.3-1.4-1-2.7-2-4-3-7.2-5.3-11.9-8.4-11.9-8.4s2 5.4 6.7 13.2c2.3 3.9 5.3 8.4 8.9 13 2.9 3.8 6.1 7.6 9.7 11.5-.9.1-1.8.3-2.6.5l-.6-.9c-3.8-5.8-8.7-11.6-14.5-17-5.8-5.4-12-9.7-17.9-13.1-5.9-3.4-11.5-5.9-16.3-7.8-9.6-3.7-15.9-4.8-15.9-4.8s4.7 4.4 12.2 10.9c7.5 6.6 17.6 15.4 28.2 25.3 2.8 3 5.9 5.9 8.8 8.6zm96.6-19.5c.1 1.3.4 3.3 1.3 5.7.5 1.4 1.1 3 2 4.6-1.2.4-2.4.8-3.6 1.1-1.2.4-2.4.7-3.5 1.1 1.3-3.9 2.5-8.1 3.8-12.5zm2221.9 35.9c-1.6-3.7-3.6-7.6-6.2-11.4-2.5-3.8-5.3-7.2-7.9-10.1-2.6-2.9-5.1-5.4-7.3-7.4-4.4-4-7.3-6.2-7.3-6.2s2 3.1 5.3 8 7.9 11.5 12.8 18.7c2.4 3.7 4.7 7.2 6.6 10.4 1.9 3.3 3.5 6.3 4.6 8.9 2.3 5.3 3 8.9 3.1 8.9 0 0 .1-.9.2-2.6 0-1.7-.1-4.1-.7-7.1-.6-2.9-1.6-6.4-3.2-10.1zm5-19.9c-.7-4.8-1.8-9.3-2.8-13.4-1.1-4.1-2.2-7.6-3.3-10.6-2.1-6-3.7-9.6-3.7-9.6s.3 3.9 1.1 10.2c.8 6.3 2 14.8 3.5 24.2.7 4.7 1.4 9.1 2 13.2.6 4.1 1 7.8 1.4 10.9.4 3.1.6 5.7.8 7.4l.3 2.7s.2-1 .6-2.7c.3-1.8.7-4.3 1-7.5.3-3.2.5-7 .4-11.2-.2-4.2-.5-8.8-1.3-13.6zm10.2-22.9c-.3-4.2-.6-8.1-.8-11.3-.5-6.4-1-10.4-1-10.4s-.9 3.9-1.7 10.4c-.4 3.2-.8 7.1-1 11.3-.2 4.3-.3 9-.3 13.9.1 4.9.3 9.6.5 13.8.3 4.2.5 8.1.8 11.3.5 6.4.9 10.4.9 10.4s.9-3.9 1.8-10.4c.4-3.2.8-7.1 1-11.3.2-4.3.4-9 .3-13.9s-.2-9.5-.5-13.8zm24.8-22.6c2.2-8.4 3.5-13.7 3.5-13.7s-2.5 4.8-6 12.8-7.9 19.3-11.6 32.1c-1.9 6.4-3.3 12.6-4.5 18.3-1.1 5.7-1.9 10.8-2.5 15.2-1.1 8.7-1.3 14.1-1.3 14.1l3.9-13.6c1.2-4.2 2.6-9.1 4.3-14.6l5.2-17.9c3.6-12.7 6.8-24.3 9-32.7zm13.8 20.1c2.6-4.9 5.1-9.2 7.2-12.8s4-6.5 5.3-8.5l2-3.1s-1 .9-2.7 2.6c-1.7 1.7-4.1 4.2-6.8 7.5s-5.8 7.4-8.9 12.1c-3.1 4.8-6.1 10.2-8.9 16.1-2.8 5.9-5 11.7-6.9 17-1.9 5.3-3.3 10.2-4.5 14.2-2.3 8.2-3.5 13.3-3.5 13.3s2.4-4.7 6-12.4c1.8-3.8 3.9-8.4 6.2-13.5 2.3-5.1 4.8-10.6 7.5-16.4 2.7-5.7 5.4-11.2 8-16.1zm1.8 19.5c-.1-2-.3-3.5-.4-4.6-.1-1.1-.2-1.7-.2-1.7s-.2.6-.6 1.6c-.4 1-.9 2.6-1.4 4.5-.5 1.9-1.1 4.2-1.6 6.6-.5 2.5-1.1 5.2-1.6 8s-1 5.5-1.4 7.9c-.5 2.4-1 4.5-1.6 6.3-.6 1.8-1.2 3.2-1.8 4.1-.5.9-.9 1.4-.9 1.4s.6-.2 1.5-.9c.9-.6 2.2-1.7 3.5-3.4 1.3-1.6 2.5-3.8 3.6-6.3 1-2.5 1.8-5.3 2.4-8.3.5-3 .7-5.9.8-8.5-.1-2.4-.2-4.7-.3-6.7zm16.1-16.1c0-6.7-.4-10.9-.4-10.9s-1 4.1-2.3 10.6c-1.3 6.6-2.9 15.6-4.7 25.5-.9 4.9-1.8 9.6-2.7 13.9-.9 4.3-1.9 8.1-2.7 11.3-.9 3.2-1.7 5.8-2.3 7.6-.6 1.8-.9 2.8-.9 2.8s.6-.8 1.7-2.4c1-1.6 2.5-3.9 4-7 1.5-3 3.1-6.8 4.6-11 1.4-4.3 2.7-9 3.6-14.1.9-5.1 1.5-10 1.8-14.4.3-4.5.3-8.5.3-11.9zm-87.9 46.3c-.7-1.6-1.4-3.2-2.2-5-1.6-3.6-3.4-6.8-4.9-9.1-1.5-2.3-2.6-3.7-2.6-3.7s-.1 1.8.1 4.5c.1 1.4.3 3 .7 4.8.4 1.8 1 3.7 1.9 5.7.9 1.9 2 3.7 3.2 5.2 1.2 1.5 2.5 2.7 3.6 3.5 1.2.9 2.2 1.4 2.9 1.7s1.2.4 1.2.4-.9-1.5-2.1-3.9c-.5-1.2-1.1-2.6-1.8-4.1zm-15.2-20.6c-1.4-7-2.7-13.4-3.7-18-1-4.7-1.7-7.6-1.7-7.6s-.6 3-.9 7.8c-.2 2.4-.2 5.3-.1 8.5.2 3.2.5 6.7 1.3 10.4.7 3.6 1.7 7 2.7 10.1 1.1 3 2.2 5.7 3.2 7.9 2.1 4.4 3.7 6.9 3.7 6.9s-.4-3-1.2-7.7c-.8-4.9-2-11.3-3.3-18.3zm-11.7 13c-1.7-4-4-8.6-7.1-13.4-3-4.8-6.8-9.9-11.2-14.8-4.4-4.9-9-9.2-13.3-12.9-4.3-3.7-8.4-6.7-11.9-9.2-3.5-2.5-6.4-4.4-8.4-5.7-2-1.3-3.1-2-3.1-2l2.6 2.6 7.2 7.1c3 3 6.6 6.5 10.5 10.5 3.9 4 8.1 8.4 12.4 13.1 4.3 4.8 8.1 9.4 11.5 13.8 3.3 4.4 6.2 8.5 8.4 12.1 2.2 3.6 3.9 6.6 5.1 8.7 1.1 2.1 1.7 3.3 1.7 3.3s-.3-1.3-1-3.6c-.6-2.4-1.7-5.7-3.4-9.6zm-12.3 5.7c-1.9-2.3-4.4-4.9-7.5-7.4-3.1-2.6-6.7-5.1-10.7-7.3-4-2.2-8-3.9-11.7-5.2-3.7-1.3-7.1-2.3-10-3-5.7-1.5-9.4-2-9.4-2s3.2 1.8 8.4 4.5l9.1 4.7c3.4 1.8 7.1 3.7 10.9 5.8 3.8 2.1 7.4 4.2 10.6 6.2 3.2 2 6 4 8.3 5.7 2.3 1.7 4.2 3.2 5.4 4.3l2 1.7s-.4-.8-1.3-2.2c-.8-1.5-2.1-3.5-4.1-5.8zm-602.1 1.6c5.3-5.3 0-7.3 1.3-21.3s-34.7-8-18-24.7-14.7-32-5.3-37.3 13.3-27.3 24.7-18 23.3-2.7 25.3 6 12 4 12 21.3 4.7 23.3 17.3 26 10-14.7 15.3-10.7 10-18 14.7-19.3.7-20.7 12.7-16.7 24.7-14 34 4.7 8 8.7 4 26.7-22 23.3-13.3 30.7 8.7 5.3 20.7 7.3 15.3-9.3 28.7-.7 26-8.7 28.7 6 8 18-11.3 23.3-42 4-70.7 4-120.8-7.3-120.8-7.3zm-569-47.7c5-4.3-6.7-17.3-2-22.7s1-14 5-22.3-3.3-18.3 5-25.7 1.7-29.7 8.3-30.3 5.3-22.7 14-16.7 15.7 4.7 9.3 18.7 1 11.3-.7 23.7-11 6.7-6 19.3-.7 11.3 5.3 18.7 3 9.7 8.7 11.7 5.7 2.3 13.7-3.7 6.7-9.7 11.3-17.3-2.7-19 8.3-19.3 20-16.7 25.3-9 7.7 3.7 4.7 17-13.7 16.7-10.3 25.7-1.3 5.7 2.3 13 .7 13 10 11.3 5.3-5.7 13-7.3 10.3-15 19.7-10.3 13-.3 16.3 9.7-14.3 10.7-14.7 17.7-2 1.3-7.3 9.7-26.3 17-49 10-40.3-18.3-54.7-17-35.5-4.6-35.5-4.6z"/><path fill="#009CB3" d="M2808 2923.3c1-.7-22.3-24-23-25.3s-31.7-32-33.7-32.7-38.7 8.3-38.7 8.3h-15.3l-15-6s-19.7 2-20.7 3.7-28.6 13.7-28.6 13.7-8.7 4.3-12 4.7-13-1.3-15 .7-5.3 19.3-5.3 19.3 47.7 14 62.3 15.3 69 5.3 81.3 6 63.7-7.7 63.7-7.7zM1235 2951s23.3-24.7 24.7-26.7 24.7-14 34.7-13.3 26 6 28 8.7 6 11.3 6.7 13.3 9.3 20 9.3 20-48 12.7-55.3 11.3-48.1-13.3-48.1-13.3zm138 4 12.7-8.7s16.7-6.7 18.7-7.3 17.3 2 20.7 2 10.7 2.7 12.7 6.7 2 12.7 2 12.7-36.7 4.7-40.7 4.7-26.1-10.1-26.1-10.1zm1865.8-11.4c-5.6 2.2-13.3 5.4-21 10.5-3.9 2.5-7.4 5.3-10.3 8.2-1.2 1.2-2.3 2.3-3.3 3.5 3.9-5.4 8.6-11.5 13.5-18.1 7.5-10.2 13.8-19.7 18.3-26.8 4.4-7.1 6.8-11.8 6.8-11.8s-3.9 3.5-9.8 9.4-13.9 14.4-21.4 24.7c-2.2 3-4.2 6-6.1 9l3.4-13.5c3.4-13.9 6.3-26.5 8.3-35.8 2-9.3 3-15.1 3-15.1s-2.9 5.2-6.7 13.9c-3.8 8.7-8.6 21-12.1 35.1-2.1 8.6-3.5 16.9-4.3 24.2-.4-8-1.2-16.9-2.7-26.2-2.8-17.6-7.3-33.1-11-44.1s-6.6-17.6-6.6-17.7c0 0 1 7.1 2.9 18.6l7.2 44.4c1.3 8.1 2.5 15.8 3.5 22.9-3.1-6.3-7.3-13.8-13-21.3-7.1-9.4-15.2-16.6-21.4-21.2-6.2-4.6-10.5-6.7-10.5-6.7l7.9 9.5c4.8 5.9 11.1 14 18 23 4.1 5.4 8.1 10.6 11.6 15.1-1.4-1.4-2.9-2.8-4.6-4.1-6.7-5.4-13.5-8.9-18.5-11.3-5-2.4-8.3-3.6-8.3-3.6s2.2 2.8 6.1 6.7c3.9 4 9.6 9 15.9 14.1 5.2 4.2 10 7.9 13.8 11.1 2.6-.4 5.4-.6 8.1-.6 3.8 0 7.5.4 11 1.2 4.4-3 9.8-6.5 15.6-10.3 7.4-4.8 14.1-9.7 18.8-13.6 4.7-3.8 7.3-6.6 7.3-6.6-.2 0-3.8 1.2-9.4 3.3z"/></svg>